<?xml version="1.0" encoding="UTF-8"?>
<!DOCTYPE svg PUBLIC "-//W3C//DTD SVG 1.1//EN" "http://www.w3.org/Graphics/SVG/1.1/DTD/svg11.dtd">
<!-- Creator: CorelDRAW X7 -->
<svg xmlns="http://www.w3.org/2000/svg" xml:space="preserve" width="11.6929in" height="8.26772in" version="1.1" style="shape-rendering:geometricPrecision; text-rendering:geometricPrecision; image-rendering:optimizeQuality; fill-rule:evenodd; clip-rule:evenodd"
viewBox="0 0 11693 8268"
 xmlns:xlink="http://www.w3.org/1999/xlink">
 <defs>
  <style type="text/css">
   <![CDATA[
    .fil65 {fill:#330926}
    .fil16 {fill:#451B3F}
    .fil18 {fill:#473EA1}
    .fil68 {fill:#4943A5}
    .fil75 {fill:#4B4BAD}
    .fil12 {fill:#4C4EB0}
    .fil42 {fill:#4E52B3}
    .fil21 {fill:#4F2B82}
    .fil73 {fill:#511A88}
    .fil66 {fill:#52156D}
    .fil19 {fill:#521778}
    .fil11 {fill:#521D98}
    .fil45 {fill:#5674CD}
    .fil28 {fill:#591F8E}
    .fil52 {fill:#595BC3}
    .fil20 {fill:#5967C5}
    .fil25 {fill:#5E4CB6}
    .fil56 {fill:#6146B3}
    .fil92 {fill:#615BA9}
    .fil70 {fill:#6439AE}
    .fil36 {fill:#683E7D}
    .fil43 {fill:#6E75D5}
    .fil48 {fill:#719EF4}
    .fil112 {fill:#7268B4}
    .fil47 {fill:#765392}
    .fil3 {fill:#7B2041}
    .fil50 {fill:#7E0A11}
    .fil26 {fill:#7E1128}
    .fil9 {fill:#8242DE}
    .fil14 {fill:#8246FC}
    .fil38 {fill:#8343DA}
    .fil84 {fill:#840C12}
    .fil114 {fill:#85687A}
    .fil61 {fill:#8669A3}
    .fil54 {fill:#89152C}
    .fil8 {fill:#8B6EA3}
    .fil88 {fill:#90A8EC}
    .fil77 {fill:#948DD5}
    .fil113 {fill:#957C8B}
    .fil82 {fill:#98599B}
    .fil7 {fill:#988BC3}
    .fil57 {fill:#9E6291}
    .fil63 {fill:#A17DDC}
    .fil35 {fill:#A31C3D}
    .fil62 {fill:#A494D6}
    .fil109 {fill:#A58B99}
    .fil5 {fill:#A58CC6}
    .fil101 {fill:#A58CC9}
    .fil69 {fill:#A75B5F}
    .fil95 {fill:#A795B5}
    .fil76 {fill:#A84B06}
    .fil71 {fill:#A88EF5}
    .fil103 {fill:#A8D4F9}
    .fil72 {fill:#A96B91}
    .fil51 {fill:#AB261D}
    .fil30 {fill:#AD3C39}
    .fil83 {fill:#AD8ECF}
    .fil106 {fill:#AD91AA}
    .fil10 {fill:#AF141D}
    .fil22 {fill:#B22842}
    .fil99 {fill:#B6111D}
    .fil58 {fill:#B67EFD}
    .fil96 {fill:#B6AACF}
    .fil102 {fill:#B7A7B1}
    .fil94 {fill:#B8A8B4}
    .fil1 {fill:#BF3E39}
    .fil23 {fill:#C14835}
    .fil81 {fill:#C7D2FC}
    .fil80 {fill:#C8ACB9}
    .fil78 {fill:#CACBFA}
    .fil0 {fill:#CBD2FF}
    .fil4 {fill:#CCD1FE}
    .fil89 {fill:#D1B3CF}
    .fil85 {fill:#D2C4CC}
    .fil111 {fill:#D4718F}
    .fil74 {fill:#D4A3D1}
    .fil24 {fill:#D73401}
    .fil27 {fill:#D9A6CC}
    .fil98 {fill:#D9CBD5}
    .fil79 {fill:#DAD0EA}
    .fil105 {fill:#DBD3DB}
    .fil37 {fill:#DE3C37}
    .fil49 {fill:#DE6F03}
    .fil46 {fill:#E55946}
    .fil60 {fill:#E65948}
    .fil17 {fill:#E6D8E4}
    .fil53 {fill:#E82636}
    .fil93 {fill:#E9CFE8}
    .fil104 {fill:#E9E9F9}
    .fil41 {fill:#EB1A45}
    .fil87 {fill:#EE7547}
    .fil55 {fill:#EF7602}
    .fil32 {fill:#F0342C}
    .fil91 {fill:#F0B76F}
    .fil39 {fill:#F18C01}
    .fil108 {fill:#F1F2F8}
    .fil110 {fill:#F2E8EC}
    .fil15 {fill:#F3353A}
    .fil86 {fill:#F4ECF2}
    .fil97 {fill:#F5F6FA}
    .fil67 {fill:#F74633}
    .fil33 {fill:#F86557}
    .fil31 {fill:#F89A01}
    .fil59 {fill:#FAD990}
    .fil90 {fill:#FBF4F9}
    .fil29 {fill:#FC572B}
    .fil40 {fill:#FCB005}
    .fil13 {fill:#FE8B41}
    .fil34 {fill:#FEAA25}
    .fil44 {fill:#FED614}
    .fil64 {fill:#FEE191}
    .fil6 {fill:#FEE3EA}
    .fil2 {fill:#FEF4F4}
    .fil100 {fill:#FFE6E9}
    .fil107 {fill:#FFEFF1}
   ]]>
  </style>
 </defs>
 <g id="Layer_x0020_1">
  <metadata id="CorelCorpID_0Corel-Layer"/>
  <g id="_862664320">
   <path class="fil0" d="M6292 4844l-85 -6 1 -66c30,10 44,19 82,23 66,5 75,-13 106,-18l27 34c-23,20 -93,32 -131,33zm650 -1140c29,-4 55,-10 81,-18 25,-8 51,-20 73,-26l18 36c-26,29 -133,53 -186,54l14 -46zm-1399 85c-21,11 -78,27 -105,30l-45 -103 114 -38c28,-14 61,-26 91,-42l83 -48 38 98c-24,30 -124,86 -176,103zm175 -337c17,17 79,27 107,38l-28 63c-80,-8 -113,-45 -162,-81 -7,7 -19,9 -32,11l-229 63c-478,150 -744,260 -1191,487 -74,38 -144,79 -216,120l-205 124c7,9 100,50 119,59 21,9 40,19 61,28 18,8 39,20 57,26 19,-13 145,-191 156,-197l150 -193c15,9 36,22 56,29 33,10 66,18 103,26 19,4 94,13 104,21 22,0 59,23 73,33 16,12 38,32 45,57l-350 447c-4,4 -3,3 -5,4 -24,38 -218,273 -224,290l0 441c41,-5 80,-13 119,-22 19,-5 36,-9 54,-16 21,-7 31,-17 53,-18l264 -25 -6 -152 -11 -205c-23,19 -93,119 -118,148 -16,18 -44,-2 -59,-15 -33,-29 -45,-62 -70,-107 -11,-19 -20,-37 -31,-58 -7,-13 -27,-47 -31,-60 31,-36 59,-76 89,-114l226 -291c8,-11 13,-18 23,-30 7,-9 14,-22 23,-29 29,9 19,19 102,36 26,6 100,14 115,26l36 -19 62 -38c5,-2 12,-4 26,0l1 29 27 7c33,9 69,13 104,13l101 -49 24 3 -5 122 -8 173c19,0 37,-13 53,-19 0,-15 -4,-29 -1,-43l2 -21 9 -6c0,-11 -1,-25 -3,-32 -5,-3 -2,2 -8,-7 -4,-7 -3,-73 -4,-82 0,-15 -1,-31 -1,-47 -2,-39 -5,-35 10,-41l2 85c-4,-43 -1,-98 -2,-143 -1,-47 -4,-93 17,-131 21,-39 52,-39 107,-41 133,-7 306,-6 438,-4 37,1 104,-3 133,13 30,16 55,47 55,93 19,1 219,-47 256,-55 22,-5 45,-14 65,-6 19,7 37,16 56,24 155,64 331,142 489,211 10,5 17,8 27,12 26,10 19,7 20,16 -9,10 -36,9 -51,11l-14 24 -27 5 21 8 -19 59c-5,20 -10,40 -12,62 37,9 26,9 26,19 -24,7 -360,-81 -406,-93 -50,-14 -360,-105 -396,-112 -4,12 -12,23 -17,33l-20 -2 -5 62 -11 456c55,-8 114,-22 169,-32 27,-5 56,-11 83,-16 17,-3 69,-18 79,-9 28,-2 94,12 125,17l93 15c14,2 23,2 30,7 26,-3 180,26 218,31 72,12 148,26 221,35 0,-62 -4,-559 3,-573l193 -90c-14,-9 -222,-51 -259,-59 -116,-26 -711,-201 -744,-206 -11,16 -14,27 -26,43l-92 -8c6,-19 28,-42 28,-61l-46 -15 -11 -2c-5,-71 20,-153 63,-191 12,-11 259,-61 281,-66 53,-12 114,-29 166,-37l407 175c69,29 135,58 204,88 34,15 67,29 101,44l76 33c5,1 10,3 14,5l8 6c0,-1 1,1 1,2 -3,11 0,8 -9,14l-58 7c-20,20 -6,32 -38,34l-14 -1c-7,14 -9,3 23,19 -18,56 -34,88 -41,158l4 0 167 -78 171 18 -93 1122c12,-7 42,-45 53,-59 122,-150 199,-350 235,-546 47,-267 30,-539 -65,-773 -88,-215 -215,-361 -413,-478 -90,-53 -204,-96 -319,-125 -100,-25 -287,-57 -393,-52 12,21 28,36 41,54 14,8 27,25 39,38 11,11 27,23 39,32 -4,6 -17,22 -25,25 -18,7 -87,-33 -95,-49 -17,-7 -42,-39 -53,-61 9,-14 27,-24 41,-44 -12,5 -203,5 -236,7 -140,8 -294,27 -432,52 -31,6 -186,40 -202,37z"/>
   <path class="fil1" d="M7342 5498c-13,5 -874,7 -967,7 -321,2 -643,5 -963,5 -23,0 -1901,14 -1936,9 -15,-3 -38,-1 -54,2 -3,23 14,120 18,152l638 0 3045 0c56,-24 157,-89 206,-125 39,-28 161,-127 174,-154l93 -1122 -171 -18c0,107 -11,217 -14,323 -2,107 -9,212 -13,320 -4,105 -8,212 -14,318l-11 237c-2,56 10,47 -31,46z"/>
   <path class="fil0" d="M7123 5673l-3045 0c22,13 136,46 169,56 427,129 907,210 1355,212 396,1 822,-40 1200,-144 61,-16 114,-34 169,-55 33,-13 129,-52 152,-69z"/>
   <path class="fil2" d="M5779 5380c-29,8 -248,11 -272,0l-6 -81 285 -1 -7 82zm-68 -157c0,0 10,7 3,19 -1,-1 -10,-1 -3,-19zm-141 17c-3,-15 -2,-13 3,-18 11,7 5,-2 10,13l-13 5zm209 -6l-5 -10c4,4 4,3 5,10zm-80 -9c0,1 -1,2 -1,2 0,1 -1,2 -1,2l-13 7c0,0 -1,0 -2,0 -2,-11 6,-14 17,-11zm-275 16l-34 0c0,-9 -2,-12 2,-20 15,4 7,-2 10,16 0,-33 -2,-9 10,-18 -3,13 10,-11 12,22zm428 -20l1 1c15,4 7,-1 13,7l1 13c-1,0 -7,1 -11,1l-10 -1c0,0 -2,-1 -2,-1 3,-15 2,-6 -2,-9 -8,0 -7,2 -15,9l-13 -15 0 14 -22 0 1 -17c9,2 4,-4 7,3 4,8 2,5 1,15l0 -20c3,2 10,1 6,19 6,-33 13,-12 39,-17 1,0 5,-2 6,-2zm-195 20c-1,0 -14,-1 -19,-1 -11,0 3,0 -7,1 -7,1 -9,0 -10,-1l-6 -3c-11,11 -13,-5 -26,2l-1 -17c1,1 4,3 5,3 0,0 0,1 0,0 0,0 0,0 0,0 16,-7 4,-1 19,-3l11 1c2,-1 12,-2 13,-2l16 4 -1 16 -1 -16 24 -4 -5 15c-2,-7 -1,-5 -2,-12l-4 16c-5,-6 -1,-6 -6,-16l0 17zm-147 -18l14 3 -13 13c0,-1 -1,2 -2,3l1 -19zm-34 19l-1 -22 33 3 0 17c-4,-4 -3,0 -6,-8 0,-1 -1,-6 -2,-7 -14,8 0,3 -9,15 -1,-2 -2,-5 -2,-5 -3,-8 0,-4 -5,-9l-8 16zm-116 -66c0,-2 0,-2 0,-3 6,-4 19,-4 29,-4 -5,13 1,6 -19,16 -1,1 -3,3 -3,2 -1,-1 -3,2 -5,2l-2 -13zm517 -39c-6,1 1,1 -10,0 3,-8 3,-8 3,-20 1,1 2,2 3,3 1,1 2,2 3,3l4 9 1 -13c0,-1 1,-1 1,-2 1,1 2,1 2,1l4 3c1,1 1,2 2,3 1,2 1,7 1,9l-14 4zm48 -19c17,3 11,-2 13,18l-21 2 8 -20zm-78 18c-10,1 -3,1 -14,1 -3,-8 -4,-5 -1,-20 13,12 4,14 4,14 5,-12 -1,-3 7,-10 3,-2 5,-3 8,-3 17,-1 13,-4 14,15l-9 2c0,1 -8,1 -9,1zm-141 -6l5 10c-7,-1 -19,-3 -20,-3l-21 -1c1,-9 0,-30 8,-8 4,-6 2,-1 5,-10 14,4 20,-6 23,12zm-82 -10c4,-3 1,-3 11,-3 8,0 5,1 7,3l0 13c-11,5 -11,4 -20,0 0,-10 0,-7 2,-13zm-69 -3c12,13 0,9 18,3l-2 14 -17 4 1 -21zm-18 3c-1,18 0,11 -4,16 -3,-1 1,-3 -8,1l6 -12c0,0 1,0 1,0l5 -5zm235 14l2 -14c3,-2 1,-2 9,-4 1,0 6,0 7,0 8,0 6,0 10,4 2,3 5,-7 3,9 -3,16 0,3 -6,7 -10,-1 -5,3 -8,-4 -3,4 1,3 -6,4l-11 -2zm-186 2c-4,-3 -7,-3 -6,-15l7 1c0,1 5,4 6,5 -6,6 -2,2 -7,9zm-89 -13c4,-4 8,-6 14,-4 11,3 1,0 7,4 0,3 -1,6 -3,9l-4 5c-22,-2 -1,0 -11,-8l-10 4c-13,1 -9,-5 -9,-6 -1,-17 -2,-1 5,-8 1,8 -7,-10 3,3 2,2 5,6 5,6l3 -5zm-82 14c-5,-3 -8,-4 -13,-7 4,-13 3,-13 17,-10 0,6 3,5 -4,17zm33 -19c1,2 3,7 3,7 0,2 1,1 0,11 -5,0 -12,1 -17,0 -16,-1 -7,0 -12,-3l0 -16c10,7 9,4 12,17l2 -12c0,-1 1,-1 2,-2l10 -2zm280 -1l42 3 1 17 -28 -1c2,-11 5,-7 8,-17l-7 2c0,-1 -1,-1 -2,-1 5,29 -1,14 -8,19l-1 -20c1,20 -2,15 -6,18 -14,-5 -9,-9 -6,-18l3 16 4 -18zm-106 16c-11,7 -3,2 -22,4l3 -17c3,-1 6,-1 15,-2 -5,6 -3,-2 -4,12 5,4 -7,6 8,3zm-240 3c-11,-3 -4,2 -8,-9 -2,-8 4,-5 -3,-9l23 0c-5,7 -2,6 1,18 -10,-1 -5,4 -15,-13 2,12 4,8 2,13zm500 -68c1,3 2,6 3,9l0 7c-11,-2 -5,5 -8,-7 -4,-18 4,-8 5,-9zm-25 14c3,-9 6,-10 15,-16l-1 15c-3,1 4,5 -14,1zm-94 -4c-2,16 4,4 -9,6 -6,-7 -7,11 -4,-10 2,-15 -2,-3 7,-8 4,4 9,-12 6,12zm148 -11c1,-2 3,-2 3,-3l4 13 -14 6c-1,0 -2,1 -3,2l10 -18zm-391 7c1,15 1,1 -3,7 -10,-13 -1,-12 0,-12 5,6 2,-7 3,5zm-13 7c0,0 -1,0 -1,1 -1,0 -2,0 -2,0l-12 3 0 -19c7,7 2,-5 8,10 1,-10 -1,-3 5,-8 1,8 1,5 2,13zm-129 -7c3,-6 2,-5 5,-9l2 21c-14,-4 -14,2 -16,-9 -1,-11 4,-8 6,-9l0 15c1,-2 2,-7 3,-9zm447 11c-23,-3 -6,1 -19,-9 -1,1 -6,3 -7,3l-6 0c1,-14 6,-11 33,-14l-1 20zm5 0c3,-21 -3,-14 13,-19l-6 3c0,24 2,9 -7,16zm-48 -19l-5 19c-6,-8 -5,12 -4,-15 -2,15 0,8 -9,17l1 -20 17 -1zm-55 -1l7 17c1,-1 9,0 2,-13l10 -1c0,-1 1,-1 2,-2l1 18 -24 1 2 -20zm-23 10c2,-14 -9,-7 16,-10l1 22c-19,-5 -13,-2 -30,-3 3,-16 -2,-8 6,-13 1,0 6,3 7,4zm-70 5c6,-5 1,-1 -2,-13l26 8c0,0 0,0 1,1l4 1c1,0 4,1 5,2l-19 8 1 -10 -7 5c-13,5 -21,1 -34,5l2 -23c3,4 11,-7 6,11 4,-16 4,4 7,-7 0,-1 1,0 2,0 0,0 1,2 1,2 9,18 3,9 7,10zm-54 -12c14,1 6,1 11,3l-3 11 -8 -14zm-27 1c0,-1 2,-1 2,-2 1,-1 2,-1 3,-1l0 18 -16 0 11 -15zm-153 8c-1,0 0,-5 0,-6 -5,5 -6,4 -11,3 1,-7 -5,-12 23,-7 0,0 -1,1 -1,2l-8 14c0,-1 -1,1 -1,2 -3,-6 0,4 -2,-8zm41 8c-10,-6 -8,9 -8,-15l-11 17c1,-14 3,-10 -1,-21 0,3 0,8 -1,11 -4,10 1,1 -7,7l0 -18 24 1 4 18zm211 -53c-18,5 -31,5 -31,-14 0,0 1,-1 7,-2 1,-1 2,0 3,-1l20 -2 1 19zm29 -17c-1,6 1,26 -21,17l-4 -2c0,0 -2,0 -2,-1 0,-1 -1,-1 -2,-1 2,-11 1,-7 5,-10l24 -3zm218 13c0,-16 11,-13 20,-11 -3,6 -1,6 -10,10l-10 1zm-349 -7c8,5 2,-4 7,9 -12,-7 -5,-3 -7,-9zm308 -6l21 0 -10 18 -11 -18zm-81 2c3,-1 2,-1 9,-3 4,0 3,0 7,1 5,6 6,-10 5,11l4 -10c2,17 -2,12 -4,17 -1,1 -8,2 -11,2 -23,0 -4,2 -13,-3 -2,-1 -5,-6 -13,0l-7 -15c-1,1 -3,7 -3,8 -2,6 -3,6 -5,9l0 -20c3,1 10,3 12,4l12 7c4,-6 2,-5 7,-8zm-66 -2c5,0 16,-1 19,-1 12,0 12,2 17,4l0 17c-12,-10 -10,14 -10,-18l1 18c-16,-7 -10,-1 -17,-2 -15,-2 -9,0 -10,-18zm-122 16c-7,-5 -4,-1 -7,-10 7,-5 3,-4 13,-5 0,0 1,0 2,0 0,0 1,0 2,0l8 2 0 15 5 -18c11,3 5,-3 9,19 -24,-2 -5,3 -19,5 -10,1 -9,0 -13,-8zm-39 -10l-4 12c-3,-6 -3,12 -3,-12 4,-10 -7,-4 13,-5l-6 5zm-114 -5c15,-6 15,1 17,2l1 17 -17 -2c-1,0 -2,0 -3,-1 0,-2 -2,-1 -2,-2 -3,5 -5,3 -21,4l-2 0c-36,-5 -38,17 -48,-4 -1,-1 -1,-2 -1,-3 -3,-8 -1,-1 -2,-11 1,1 1,2 2,3l5 8c5,7 -7,-2 5,5 0,-6 0,-13 5,-16 11,3 6,-4 8,16l0 -19c1,1 2,2 3,3l6 9c2,-4 2,-5 2,-6 2,-5 -3,-3 23,-5l-1 -1c7,2 12,5 20,3zm191 -51l11 -3c0,-1 1,0 2,0 2,4 4,2 4,10 1,11 -1,5 -5,10 -17,1 -7,-1 -12,-3l-12 2 0 -19 7 16c0,-1 1,2 1,2l4 -15zm-204 -1l18 -2 0 20c-20,1 -15,-1 -17,-2l-14 1 2 -18 7 17 4 -16zm225 -1c12,5 7,2 9,19 -15,-8 -8,9 -12,-3 0,-1 -1,0 -1,0 -1,-5 -1,-5 0,-10 2,-10 -1,-1 4,-6zm-52 2l20 -3 0 20c-1,0 -10,1 -11,1 -5,-1 -7,-3 -7,-3 -1,-1 -2,-1 -2,-2 0,-2 -2,-3 -2,-4 -2,4 1,6 -16,8l0 -20c19,3 11,2 16,8l2 -5zm-61 13c6,-17 3,-11 11,-17l0 18c-10,3 -13,1 -25,2 2,-9 4,3 2,-6 -20,-5 4,8 -21,6l-1 -18 34 0 0 15zm-94 -15c12,13 4,6 8,5l9 1c-3,8 -1,4 -7,7l-10 5 0 -18zm249 12c-1,-1 -2,-4 -3,-5 0,-2 0,-2 0,-3l-2 14c-6,-1 -8,-1 -11,-5 -5,-5 -2,-1 -4,-12l27 -3 -1 21c-7,-6 -1,1 -6,-7zm199 -10c2,-1 2,-2 17,-3l1 19 -18 -16zm0 0l0 15 -19 3 -1 -19c0,3 1,8 0,11 -2,9 0,2 -5,7l-2 -20 27 3zm-44 14l-62 3 11 -13 -5 -2c-3,-3 0,3 -2,-5 11,0 17,0 29,0l29 0 0 17zm-112 -14l-1 17 -22 -3c9,-19 4,3 7,-10 2,-7 0,2 -3,-6l31 -1 1 14c0,-8 -4,-10 9,-14 24,-6 12,2 14,7 4,16 -12,12 -24,12 -7,-10 -8,-4 -5,-16l-2 18c-6,-6 -4,0 -6,-11 -2,-5 1,-7 1,-7zm-259 16c-9,-9 -1,-4 -6,-18l19 0 0 19c-6,-8 -3,-9 -5,-18l-1 18c-5,-6 -4,-6 -5,-17l-2 16zm126 -84c-8,7 16,3 -11,6 2,-24 0,-12 -6,-26 15,-7 14,-1 16,-17 19,12 4,7 27,17 0,1 -1,2 -1,2l-8 19 -17 -1zm-68 -21c16,-2 13,0 20,-14 9,13 3,11 20,15 -8,12 -9,4 -8,23 -16,-5 -9,-4 -25,1 2,-20 2,-12 -7,-25zm-12 1c-7,9 -9,7 -8,23 -17,-4 -9,-4 -25,1 1,-16 2,-14 -8,-23 17,-6 11,-4 22,-15 5,13 3,11 19,14zm-61 23c-15,-4 -10,-4 -25,1 2,-21 -5,-17 -6,-23 0,-1 -1,-1 -1,-2 7,-1 7,1 13,-4 0,0 5,-4 5,-5l4 -4c5,13 2,11 18,14 -7,9 -9,7 -8,23zm-44 -23c-8,10 -10,6 -8,23 -17,-5 -9,-4 -26,1 2,-17 4,-13 -7,-20l20 -15c0,-1 1,-2 1,-2 9,13 3,10 20,13zm526 -588c-7,90 -5,187 -10,279 -6,92 -12,183 -16,271l-136 0 0 -6c-45,2 -89,3 -134,4 -21,1 -41,2 -62,2 -30,1 -42,9 -43,-21 -10,-13 1,-4 -17,-8l0 -19 -41 -1 -18 -25c-10,-12 -6,-24 -6,-40l-98 0 -11 -204c-30,2 -30,4 -29,-4 0,22 3,49 -3,70 -6,27 13,662 14,707 2,57 -4,125 29,151 24,18 126,13 163,13 119,0 237,0 356,-3 35,-1 47,-5 66,-26 17,-18 14,-43 15,-72 3,-58 4,-117 6,-175l18 -700c1,-59 2,-118 4,-177 0,-29 14,-131 -42,-137l-3 50 30 0 1 73 -33 -2z"/>
   <path class="fil3" d="M7258 4332c13,11 26,6 33,19l-3 10 -25 -5 -43 -6 -193 90 -1 572 53 9 103 17c8,25 23,52 20,84 11,14 4,53 0,72 -5,26 -16,44 -20,64l92 1c15,28 22,55 26,93 4,29 -1,61 -8,87 -3,11 -7,23 -11,34 -9,22 -10,13 -35,15l96 10c41,1 29,10 31,-46l11 -237c6,-106 10,-213 14,-318 4,-108 11,-213 13,-320 3,-106 14,-216 14,-323l-167 78z"/>
   <path class="fil4" d="M3635 5481l-19 -230 -3 -40 -9 -98 -4 -57 -12 -140c1,-15 -3,-24 0,-40 -10,-15 -35,-393 -40,-446 -16,7 -55,40 -70,52l-130 114c-21,21 -37,40 -58,60 -19,19 -38,43 -55,66 -108,146 -115,289 -2,439 30,40 79,94 116,124 59,47 61,53 136,104 25,17 48,32 75,47 21,13 59,31 75,45z"/>
   <path class="fil3" d="M3778 5498l47 -3 0 -90 1 -31 89 -5 192 -21 0 -441c-14,10 -31,34 -41,48 -32,-3 -54,-19 -72,-35 -26,-22 -35,-43 -48,-59l-126 -237 91 -117c13,-17 85,-105 88,-117 -18,-6 -39,-18 -57,-26 -21,-9 -40,-19 -61,-28 -19,-9 -112,-50 -119,-59 -17,-2 -24,-12 -41,-14 -8,16 38,1110 40,1236l17 -1z"/>
   <path class="fil5" d="M6024 4231l-7 278 5 -62 20 2c5,-10 13,-21 17,-33 36,7 346,98 396,112 46,12 382,100 406,93 0,-10 11,-10 -26,-19 2,-22 7,-42 12,-62l19 -59 -21 -8 27 -5 14 -24c15,-2 42,-1 51,-11 -1,-9 6,-6 -20,-16 -10,-4 -17,-7 -27,-12 -158,-69 -334,-147 -489,-211 -19,-8 -37,-17 -56,-24 -20,-8 -43,1 -65,6 -37,8 -237,56 -256,55z"/>
   <path class="fil6" d="M5671 4379c-8,-6 -5,7 -6,-28 -2,-51 -6,-21 3,-33 8,12 6,15 6,30 0,12 2,20 -3,31zm-143 -10c0,1 1,1 2,1 2,1 4,3 4,3 1,-1 2,0 3,1 -6,4 1,1 -10,4 0,0 -11,0 -11,0l0 -47c2,-13 1,-6 4,-10 4,8 3,11 3,23 0,8 0,15 0,23l5 2zm28 11c-12,-2 -19,5 -19,-33 -1,-29 7,-27 16,-28 2,3 2,3 4,9 3,12 1,40 -1,52zm188 -1c-5,-8 -6,-50 -4,-61 12,3 5,-1 14,14 6,-14 0,-11 13,-16l3 35c1,34 -2,27 -6,29 -6,-10 -2,-16 -7,-23 -14,13 -1,16 -13,22zm-17 1c-14,-7 -14,-50 -6,-62 9,13 6,29 6,49l-1 -47c16,4 10,9 11,31 1,36 -3,26 -10,29zm-111 -2c-7,-7 -6,-47 -4,-60 11,5 5,8 13,19 0,-2 3,-12 4,-13 5,-9 0,-3 6,-7l4 17c0,5 0,11 0,17 0,11 1,21 -4,29l-4 -39 -8 20c-10,16 -1,8 -7,17zm79 -24c-4,15 -7,22 -14,25 0,0 -16,-64 6,-61 14,2 12,23 8,36zm-134 -23c2,-13 -1,-4 5,-11l11 0c9,16 5,16 2,33 -3,15 1,11 7,24l-1 -57 21 0c-4,16 -11,5 -12,18 0,9 6,8 13,13l-4 3c-10,9 -10,7 -5,13 1,1 3,4 4,5 4,5 1,-4 6,8 -14,0 -22,1 -30,3 -13,-15 6,-11 -16,-3l-1 -49zm140 45c0,-8 10,-4 2,-27 -5,-16 -3,-26 9,-29 1,17 -8,1 -4,23 2,6 13,25 -1,33 -13,8 -2,3 -6,0zm238 -99l1 2 1 10 -602 4 0 -78 573 4c37,-1 29,-1 29,8l-1 3 7 12c4,7 4,7 6,13 -6,12 -5,15 -14,22zm-622 310c6,-21 3,-48 3,-70 -1,8 -1,6 29,4l11 204 98 0c0,16 -4,28 6,40l-1 -5 7 -306 66 0c0,-10 0,-19 0,-28 1,-15 -2,-15 10,-16l3 0 249 2 5 120 70 0 -1 67 -66 1 4 115 -6 10c-5,12 -2,22 -2,40l1 33c-2,15 0,4 -5,8 -2,10 -8,25 -19,27l0 6 136 0c4,-88 10,-179 16,-271 5,-92 3,-189 10,-279l33 2 -1 -73 -30 0 3 -50c-11,-12 -231,-6 -261,-6 -90,0 -181,0 -270,2 -49,1 -77,-4 -97,34 -16,31 -10,88 -9,126 1,38 -1,247 8,263z"/>
   <path class="fil7" d="M5050 4605c7,-9 18,-12 28,-17l2 50 16 4c0,1 1,1 1,3l2 64 -85 -11c-6,-11 -2,-60 -2,-76 10,-8 25,-16 38,-17zm-77 867l157 0c8,-177 10,-356 14,-533l11 -398c0,-23 1,-46 1,-69 1,-11 1,-22 1,-33 0,-4 1,-12 1,-16 0,-4 0,-5 -1,-9 -2,-11 3,1 -3,-7l-49 1c-35,0 -71,-4 -104,-13l-28 1077z"/>
   <path class="fil8" d="M6407 3887l0 3 115 -11c-17,46 -30,109 -31,163l4 0 759 290c7,-70 23,-102 41,-158 -32,-16 -30,-5 -23,-19 -19,-1 -4,7 -24,0l-69 -30c-31,-13 -62,-25 -92,-38 -36,-16 -535,-229 -555,-233 -6,16 -2,17 -18,20 -11,2 -25,3 -36,4 -22,3 -51,7 -71,9z"/>
   <path class="fil5" d="M4580 4910l-17 -319c8,-9 13,-15 28,-17 7,-9 97,-60 115,-71 21,-12 38,-23 59,-35 18,-11 41,-23 57,-35l27 -17c-15,-12 -89,-20 -115,-26 -83,-17 -73,-27 -102,-36 -9,7 -16,20 -23,29 -10,12 -15,19 -23,30l-226 291c-30,38 -58,78 -89,114 4,13 24,47 31,60 11,21 20,39 31,58 25,45 37,78 70,107 15,13 43,33 59,15 25,-29 95,-129 118,-148z"/>
   <path class="fil9" d="M3891 4681c46,64 72,76 39,102 -12,-37 -76,-115 -68,-133 8,2 6,1 11,6l18 25zm135 -289c18,-23 34,-44 51,-67l128 77c14,9 32,17 43,28 -3,7 -24,30 -32,37 -7,8 -9,12 -16,20l-80 90 -139 -108c-1,0 -2,-1 -2,-1l-5 -6 52 -70zm301 -328l9 4 161 46c-8,16 -144,188 -153,192 -5,20 -65,82 -79,110l-39 -23 -140 -75c7,-15 114,-148 125,-161 -12,5 -18,12 -28,20 -8,6 -16,15 -24,17 -1,0 -2,0 -2,-1 0,0 -1,0 -2,0 -11,6 -137,184 -156,197 -3,12 -75,100 -88,117l-91 117 126 237c10,-5 26,-30 34,-41 13,-14 22,-28 34,-42 22,-27 43,-54 65,-83 22,-29 44,-56 67,-84 11,-14 22,-28 33,-43 7,-9 25,-33 32,-39 4,-11 76,-98 89,-116l180 -228c15,-20 30,-37 45,-57 11,-14 30,-42 43,-52 -10,-8 -85,-17 -104,-21 -37,-8 -70,-16 -103,-26 1,12 4,2 -6,12 0,0 -9,7 -9,7 -10,7 -11,7 -19,16z"/>
   <path class="fil10" d="M4658 4919c8,3 5,-1 7,7l3 95c0,5 1,13 1,17 0,1 -1,5 -1,6 -1,7 0,3 -3,8 -9,-3 -8,4 -9,-27 0,-12 -1,-24 -1,-36 -1,-24 -4,-49 3,-70zm14 -4c29,-6 34,-6 36,28 1,31 1,40 -21,55 -1,31 7,43 -5,50 -8,-4 -6,-5 -7,-26l-3 -107zm154 98c-7,-1 -8,4 -10,-24 -1,-11 -3,-25 -6,-34l0 50c-1,19 3,9 -7,14 -10,-9 -6,-75 -7,-103 0,-6 -1,-13 -1,-20l3 -18 12 -3c3,3 1,-1 3,6 5,14 5,57 13,76l5 -88 18 -6 4 132c-2,17 2,9 -7,14 -7,-3 -7,10 -7,-34 0,-14 -1,-28 -1,-42l-5 63c-1,15 2,11 -7,17zm-66 -123c11,20 -5,107 13,117 9,-12 4,-73 2,-97 -1,-21 -4,-24 12,-28 1,46 15,145 -17,146 -24,0 -17,-69 -19,-105 -2,-38 -3,-31 9,-33zm-38 147c-8,-9 -17,-30 -4,-39 10,5 -5,-10 3,3 3,5 1,3 3,7 5,8 -1,6 7,10 15,-26 -13,-42 -18,-64 -8,-28 -3,-60 26,-55 1,3 5,13 6,18 2,20 2,13 -7,17 -10,-3 2,-5 -10,-15 -17,23 10,40 16,59 4,12 13,61 -22,59zm116 -329c9,-75 -7,-100 26,-105 2,26 1,56 2,83 1,58 9,67 -12,69l-2 -73c-4,11 -3,27 -4,40 -2,23 2,38 -9,40 -12,-3 -4,8 -9,-11 -2,-7 0,-33 -7,-47 -2,24 4,53 -3,64 -14,-3 -6,10 -9,-10l-3 -135 14 -6c7,7 2,-3 6,12l10 79zm-38 -80l1 22c-11,3 -14,3 -22,10l1 33c1,0 2,0 2,0l4 1c1,0 2,0 2,0l10 2c0,22 3,15 -17,23l1 40 21 -6 1 21 -34 11 -5 -143 35 -14zm-50 23l0 3c19,12 3,53 6,70 3,15 5,19 6,38 0,20 6,27 -11,28 -4,-16 4,-43 -10,-52l-3 5c-8,30 13,50 -10,57 -7,-12 -4,-61 -5,-78l-2 -38c-1,26 2,30 -3,57l-3 -38 3 51c-2,29 3,39 -14,56l-10 1 -36 108c-11,1 -7,13 -10,28 -1,8 -5,15 -8,21l-14 -298 143 -79 -19 60zm-159 -77l4 121c2,18 -1,39 2,59 8,61 12,278 17,297l26 -76 8 125 236 -36 0 -302 0 -233c-19,3 -85,48 -111,58l49 -154c-16,12 -39,24 -57,35 -21,12 -38,23 -59,35 -18,11 -108,62 -115,71z"/>
   <path class="fil11" d="M4317 4508c5,-8 12,-15 19,-22l14 13 -20 22 -13 -13zm197 -239c9,-19 39,-54 54,-72 10,-13 45,-62 58,-66 6,5 7,6 11,13 -4,12 -93,122 -107,137l-16 -12zm-303 260c8,3 1,2 9,7 18,14 12,-8 15,14 8,0 3,0 6,-2l9 -1c11,-2 23,7 36,14 -16,-29 -29,-19 -17,-35 9,0 21,12 34,23 20,17 16,23 -7,8l4 7c5,9 6,5 5,12 -8,2 -13,-3 -22,-6l13 14c-2,4 0,3 -2,7l13 22c15,0 13,-2 24,4 2,-1 1,0 5,-4l350 -447c-7,-25 -29,-45 -45,-57 -14,-10 -51,-33 -73,-33 -13,10 -32,38 -43,52 -15,20 -30,37 -45,57l-180 228c-13,18 -85,105 -89,116z"/>
   <path class="fil5" d="M5217 4657l-32 751 -1 45 104 0c0,-27 2,-151 9,-165l-10 -418 -4 -174c-22,-22 2,-78 -14,-101 -3,14 1,28 1,43 -16,6 -34,19 -53,19z"/>
   <path class="fil12" d="M6681 5331c6,13 3,40 1,58 7,2 10,2 19,3 13,2 10,2 21,5l-1 -44c2,-18 1,-8 6,-14l3 19c7,10 -1,9 17,10 11,-5 5,4 4,-13 2,5 1,0 6,3 1,-1 4,-6 5,-6 7,-5 0,-7 5,2 13,-6 11,-5 30,-8 20,2 16,27 9,44 13,-2 1,-1 8,3 7,4 -10,0 8,5l-1 -58c11,1 29,0 34,8 8,14 -1,22 -14,26l16 23 10 1 1 -57 28 0 0 17c1,-12 -6,-14 -18,-15l-2 25c10,-2 10,1 10,-9l1 13 -11 -4 -1 30 40 1c0,-8 2,-35 2,-36 -6,-14 -8,-14 -2,-21l23 46c22,-13 -12,15 6,-5 3,-3 2,-1 5,-6 0,-1 3,-2 3,-10l-1 -4c2,18 -1,2 6,9 0,-13 -4,-22 4,-30l1 10c4,4 3,0 4,9 1,2 1,9 1,12 10,-9 14,-5 31,-5l1 -24 12 -2c-5,4 -3,-1 -5,8 -1,3 -1,13 -1,17 0,10 0,19 0,29l-7 -1c-6,2 -4,-4 -5,4 -1,0 0,2 0,2l42 1c-4,-22 1,-6 -8,-12 -4,8 6,8 -7,6l1 -43c2,-17 -2,-6 6,-10l1 37c31,0 10,1 15,-6 2,-15 4,-19 -5,-30 8,3 8,3 14,10 2,19 -2,1 6,9l0 -16c9,5 -6,1 19,21 10,8 10,14 9,26 6,-4 5,-2 10,-5 0,-8 0,-15 0,-22 0,-22 -2,-16 3,-23 3,5 3,0 3,9l0 27c-3,24 2,8 -7,14 5,12 11,13 30,6 5,-14 3,-31 3,-50l7 0c0,9 0,18 0,27 -1,14 -2,12 2,23 0,1 1,2 1,3 9,-11 9,-35 6,-43l-5 -16c11,5 3,-4 10,9l17 43c4,-4 2,-1 7,-8 3,-5 2,-4 5,-9 2,-5 5,-10 7,-16l-1 -20c12,8 9,-12 9,16 0,7 -1,9 0,17 16,8 11,7 35,7l1 -16c0,-26 -6,-48 -12,-69l48 -1 9 57c7,15 -3,14 19,14 2,-9 2,-11 7,-16 -4,-38 -11,-65 -26,-93l-92 -1 -35 -3 -484 -9c8,24 20,55 18,85z"/>
   <path class="fil13" d="M4942 5487l-40 0 -2 -6c-5,5 -3,8 -4,18l1 3c3,11 3,-3 -2,3l-418 0 -644 0c-12,-4 -5,7 -8,-10l-47 3c-10,5 -13,4 -27,4l-109 0c-4,-5 -2,3 -6,-7l0 7 -151 14c-10,2 -5,1 -9,3 35,5 1913,-9 1936,-9 320,0 642,-3 963,-5 93,0 954,-2 967,-7l-96 -10 -585 -1 -10 -1c-15,6 -137,3 -163,2l-15 -2 -72 2 -475 -4c-35,9 -118,7 -159,7 -109,1 -218,3 -326,1 -74,-2 -82,2 -121,-40l-32 1 -104 0 -3 34c-75,7 -163,3 -239,0z"/>
   <path class="fil7" d="M4493 5353l2 148 401 -2c1,-10 -1,-13 4,-18l0 -13c4,-45 13,-102 0,-144 -1,0 -3,-2 -3,-1l-48 4c-42,5 -128,16 -164,12 64,-14 170,-39 209,-75l-3 -9c-7,2 -63,32 -81,40 -30,12 -61,21 -95,30 -72,18 -145,25 -222,28z"/>
   <path class="fil14" d="M5621 4689c13,-4 85,-7 97,-3 -2,6 3,8 -20,8l-53 0c-29,0 -20,-2 -24,-5zm-40 -235c25,-6 150,3 187,2l0 39 -187 -1 0 -40zm229 261l-4 -115 -60 -1 1 -67 56 0 -5 -120 -249 -2 -7 305 268 0z"/>
   <path class="fil15" d="M4884 5094l0 124 -230 15 -5 -99 235 -40zm-270 -43c-2,69 7,142 9,214l256 -24 16 -3c1,9 -1,10 -4,17l3 9c-39,36 -145,61 -209,75 36,4 122,-7 164,-12l48 -4c0,-1 2,1 3,1 13,42 4,99 0,144 18,-13 27,-48 41,-68 -2,-8 -5,-7 3,-6l2 -632 -62 0 0 302 -236 36 -8 -125 -26 76z"/>
   <path class="fil16" d="M5317 4587c-9,-16 -7,-225 -8,-263 -1,-38 -7,-95 9,-126 20,-38 48,-33 97,-34 89,-2 180,-2 270,-2 30,0 250,-6 261,6 56,6 42,108 42,137 -2,59 -3,118 -4,177l-18 700c-2,58 -3,117 -6,175 -1,29 2,54 -15,72 -19,21 -31,25 -66,26 -119,3 -237,3 -356,3 -37,0 -139,5 -163,-13 -33,-26 -27,-94 -29,-151 -1,-45 -20,-680 -14,-707zm189 -437c24,-11 238,-11 268,-4 -25,12 -225,5 -268,4zm-182 1270c-5,-17 -1,-60 0,-79 6,36 -2,91 48,118 14,7 35,5 50,9l-49 1c28,15 425,5 489,3 50,-1 67,-2 94,-31 27,-30 21,-57 22,-104l20 -730c2,-81 5,-162 6,-243 0,-43 2,-81 3,-122 0,-44 -15,-70 -42,-87 -40,-24 -500,-15 -602,-7 -41,3 -59,20 -68,56 -11,46 -2,189 -1,245l21 855c1,21 -3,106 9,116z"/>
   <path class="fil17" d="M6158 5393c13,-36 50,-40 95,-45 8,13 8,82 9,103l-65 0 -2 -24 -46 -1c1,-12 2,-26 9,-33zm-162 -78c-1,29 -1,66 -4,93 -5,33 -26,43 -39,60l423 -1c15,-18 26,-61 29,-87 6,-49 -4,-65 -13,-104l-396 39z"/>
   <path class="fil18" d="M6822 5398c-18,-5 -1,-1 -8,-5 -7,-4 5,-5 -8,-3l0 -1 -7 11 -29 0 -7 -10c-1,-12 -8,-11 -6,-32 -5,-3 -4,2 -6,-3 1,17 7,8 -4,13 -18,-1 -10,0 -17,-10l-1 37c23,-1 17,-2 24,-18l-1 18c-13,0 -19,-2 -30,2 -11,-3 -8,-3 -21,-5 -9,-1 -12,-1 -19,-3 -4,39 -13,63 -21,98l585 1c25,-2 26,7 35,-15 4,-11 8,-23 11,-34 7,-26 12,-58 8,-87 -5,5 -5,7 -7,16 -22,0 -12,1 -19,-14l0 13 -9 80 -48 0 11 -64c-24,0 -19,1 -35,-7l3 22 -10 1 -1 -36c-2,6 -5,11 -7,16 -3,5 -2,4 -5,9 -5,7 -3,4 -7,8 -5,-1 -4,0 -8,-6 -2,-4 -3,-8 -5,-12 -3,-8 -4,-12 -9,-18 3,8 3,32 -6,43 0,-1 -1,-2 -1,-3 -4,-11 -3,-9 -2,-23 0,-9 0,-18 0,-27l-7 0c0,19 2,36 -3,50 -19,7 -25,6 -30,-6l1 -5c-5,3 -4,1 -10,5l-8 2c9,-21 -7,-22 -20,-33 -8,-8 -4,10 -6,-9 0,12 0,16 -9,20 -5,7 16,6 -15,6l-1 10c9,6 4,-10 8,12l-42 -1c0,0 -1,-2 0,-2 1,-8 -1,-2 5,-4l0 -27c-17,0 -21,-4 -31,5 0,-3 0,-10 -1,-12 -1,-9 0,-5 -4,-9 1,8 1,16 2,25 1,22 0,15 -3,20 -6,-8 -3,8 -4,-14 0,-2 0,-8 0,-11 -7,-7 -4,9 -6,-9l1 4c0,8 -3,9 -3,10 -3,5 -2,3 -5,6 -18,20 16,-8 -6,5l-5 7 -16 -32c0,1 -2,28 -2,36l-40 -1 -8 0 -10 -1c-17,-5 -10,-12 -24,-22l8 -1c3,-5 9,-12 6,-23 -3,-9 -6,-7 -17,-8l0 51 -8 4z"/>
   <path class="fil19" d="M4106 4821c-7,-3 -19,-14 -25,-18 -26,-22 -17,-7 -17,-21 12,1 29,19 42,27 1,0 2,-1 2,-2l13 -7c-2,7 -3,9 -6,14l-9 7zm-16 -72c18,-2 22,8 33,16 12,8 18,12 8,28 -17,6 -24,-5 -35,-15 -14,-10 -18,-12 -6,-29zm57 4c-12,-6 -7,-4 -12,-1 1,14 17,4 12,21 -9,-2 -38,-27 -47,-35l12 -16c18,0 18,4 23,11 11,13 19,9 25,20l0 3c-7,2 -4,1 -13,-3zm-17 -53c6,-7 1,-3 9,-7 6,12 0,2 -5,20 9,4 6,5 13,4 12,-3 -8,-3 12,-4 -3,13 -7,13 4,21 13,-4 3,-7 17,-7 0,9 -8,15 -15,21l-42 -36 7 -12zm15 -17c5,-3 -8,-7 11,-1l24 13c-24,-24 -29,-44 -8,-33 2,1 18,15 20,17 22,17 16,8 16,20 -15,-2 -7,-4 -21,-9 9,10 13,7 10,22 -10,-2 -9,-4 -19,-7l3 4c1,0 3,3 4,4 4,6 3,1 5,11 -15,-4 -7,-2 -17,-10 -5,-3 -8,-6 -13,-9 -13,-11 -22,-11 -15,-22zm81 -9c-5,2 7,7 -9,0 -7,-3 0,0 -6,-4 -5,-5 -7,-6 -12,-11 -28,-23 -19,-9 -19,-21 8,0 46,26 46,36zm-8 -57c7,10 11,14 4,29 2,1 9,7 11,9 5,6 6,-1 0,10 -8,-4 -36,-27 -45,-36l14 -16 16 4zm0 0c-6,-8 -9,-14 -3,-25 12,-4 9,-6 19,2 -10,16 -1,-2 -15,7 6,9 7,8 19,7 44,-2 24,46 1,22 9,-7 10,5 15,-11l-36 -2zm58 -18c-9,-17 -36,-24 -36,-35 2,-1 -3,-11 14,3 9,8 32,23 30,34 -5,29 -51,-11 -54,-19 -2,-5 -1,-3 0,-6 9,-1 4,-1 24,15 10,8 13,15 22,8zm-330 262c13,16 22,37 48,59 18,16 40,32 72,35 10,-14 27,-38 41,-48 6,-17 200,-252 224,-290 -11,-6 -9,-4 -24,-4l-13 -22c-10,-6 -18,-13 -27,-20 -13,-11 -21,-11 -17,-24l-9 1c-3,2 2,2 -6,2 -3,-22 3,0 -15,-14 -8,-5 -1,-4 -9,-7 -7,6 -25,30 -32,39 -11,15 -22,29 -33,43 -23,28 -45,55 -67,84 -22,29 -43,56 -65,83 -12,14 -21,28 -34,42 -8,11 -24,36 -34,41z"/>
   <path class="fil20" d="M6585 4947l-3 2c0,22 4,35 4,59 0,21 0,40 -2,61 2,-4 1,-1 3,-8 1,-3 2,-6 2,-8l2 16c6,-8 -1,-22 11,-22 13,1 6,16 5,33l17 3 4 0c1,-20 7,-33 30,-29 17,4 20,18 16,35l2 4c8,-9 7,-22 7,-34 13,1 28,1 36,11 12,15 -8,11 -1,38l6 1 5 -43c14,0 31,-2 34,11l-20 2c7,6 12,3 16,12 0,0 -1,1 -2,1l-16 5c14,8 13,-3 19,10l2 2c7,-8 7,-25 7,-38 18,2 18,7 23,24l8 -7c11,-12 3,-11 21,-11l-1 23c4,-3 9,-8 16,-6 9,4 4,-6 5,11 1,-1 1,-3 2,-3l2 -5c0,-1 0,-2 0,-3 3,-11 -2,-3 4,-12 20,4 10,25 6,42 1,0 2,0 2,1 0,1 11,10 21,4l-16 -1 6 -42c24,-3 38,2 38,28l4 0 1 -18c14,-6 23,-7 35,4 -5,8 -3,4 -15,5 -7,1 -2,-1 -6,2 16,6 21,4 20,24l5 1 3 -35 11 1c8,16 -7,22 6,33 12,-9 3,0 9,-21 2,-7 -4,0 5,-10 15,3 6,-1 10,9 3,-6 5,9 2,-12 4,4 2,-2 2,6l15 1c5,10 7,17 14,23l12 -18 14 2c6,-11 1,-7 19,-7 0,25 -1,49 -5,73 -3,16 -15,52 -14,64l1 1c12,-29 19,-50 27,-83 -1,-16 3,-13 5,-32 0,-11 -1,-25 0,-36 0,-46 -7,-50 -7,-70l-53 -9 1 -572c-7,14 -3,511 -3,573 -73,-9 -149,-23 -221,-35 -38,-5 -192,-34 -218,-31z"/>
   <path class="fil21" d="M6000 5174l0 38 406 24 51 3 20 3 11 0 154 3 21 1 484 9c-13,-7 -82,-13 -93,-13l-1 -1 -506 -63 -4 2c-37,-7 -80,-10 -117,-15 -32,-4 -92,-14 -121,-12l-305 21z"/>
   <path class="fil17" d="M6006 4996l-1 -1 -4 162c67,-3 140,-12 207,-19 74,-7 77,1 89,-27 14,-29 21,-52 25,-88 3,-32 -5,-57 -12,-85l-304 58z"/>
   <path class="fil22" d="M6627 4147c-65,-4 -314,-27 -351,-53 57,-1 130,8 188,12 39,3 55,2 90,14 13,5 62,18 73,27zm-410 -62c33,5 628,180 744,206 37,8 245,50 259,59l43 6c-8,-9 -35,-17 -49,-22l-144 -53c-194,-71 -386,-146 -580,-216l-146 -8 -61 -5 -54 -1 -12 34z"/>
   <path class="fil23" d="M3616 5251l19 230 1 14c4,10 2,2 6,7l109 0 -11 -331c-15,5 -20,14 -29,21l28 -32c1,-14 1,-47 -3,-62 -4,-15 -16,-27 -20,-48 -10,-53 22,-40 15,-121 -28,26 -57,100 -72,148 -15,44 -41,170 -43,174z"/>
   <path class="fil24" d="M4155 5449c-9,-30 7,-24 8,-25 0,5 1,14 0,19 -1,20 0,7 -4,12 -5,-5 -2,2 -4,-6zm-180 -24c11,3 5,3 6,24l15 0c-3,5 9,10 -24,5l3 -29zm279 -1c13,6 2,26 -1,30 -26,4 -23,-7 -23,-30l9 0c0,30 0,22 10,25l5 -25zm-256 22c-1,-25 14,-27 33,-15l-1 18c-14,10 -21,10 -32,-3zm272 -22l14 16c12,-12 1,-11 18,-16l0 31c-6,-1 -12,-5 -11,-13l-8 10 -6 -10c-8,15 3,9 -11,13 0,-14 -3,-20 4,-31zm-171 0c13,4 13,9 19,17 8,-12 5,-14 17,-16l0 30c-12,-2 -7,3 -8,-11l-11 8 -9 -9c-1,20 3,9 -8,12l0 -31zm-63 0c13,0 25,-2 27,9 5,18 -9,3 1,22 -11,-1 -7,1 -14,-7 -14,8 4,3 -13,7l-1 -31zm133 1c17,-1 22,-2 29,11 -7,14 -3,5 -15,12 -14,8 5,5 -14,7l0 -30zm32 11c2,-8 2,-11 11,-12 12,-1 12,6 12,6l-15 3c15,10 17,-1 16,20 -10,3 -18,7 -23,-4l16 -4c-13,-3 -10,0 -17,-9zm-132 -12l24 0c-9,12 -8,5 -15,10l14 5c-7,5 -1,3 -13,4l-10 12 0 -13 0 -18zm-169 -28l0 98 515 0 3 -49 3 -70c-86,-1 -178,4 -265,7l-198 5c-32,1 -56,-4 -58,9z"/>
   <path class="fil23" d="M3615 4263l-66 127c4,-4 6,6 -5,-3l4 43c5,53 30,431 40,446 6,-23 10,-95 14,-125 11,-78 46,-278 111,-303l-7 -193 -91 8z"/>
   <path class="fil25" d="M6584 5069c-1,28 -21,96 -37,109l506 63c-1,-12 11,-48 14,-64 4,-24 5,-48 5,-73 -18,0 -13,-4 -19,7 -2,8 -2,15 -3,23 -2,11 -2,12 -7,18 -4,0 -11,-1 -13,-11 0,-2 -1,-2 -2,-3 -4,7 0,5 -9,8l-6 -13c-7,14 1,16 -18,12 2,-16 5,-24 3,-42 0,-8 2,-2 -2,-6 3,21 1,6 -2,12 -1,19 -2,23 -14,33 -18,2 -20,1 -30,-10l-5 -1c-15,10 -25,7 -40,0 7,-17 4,-9 23,-6l-18 -11 -4 0c-10,7 -12,7 -28,5l0 10c-10,6 -21,-3 -21,-4 0,-1 -1,-1 -2,-1 -6,2 0,2 -13,1l-1 -20c-1,-17 4,-7 -5,-11 -7,-2 -12,3 -16,6 -9,42 -19,9 -21,6 -5,7 0,5 -11,8l-6 -13c-6,12 1,6 -9,14 -16,-2 -5,0 -11,-6l-2 -2c-7,8 2,3 -10,5 -2,0 -8,-1 -10,-1 -7,-1 -9,-2 -16,-2l-6 -1 -14 -2 -6 -12 -7 7c-7,4 1,2 -11,2l-4 -10 -2 -4c-18,10 -34,20 -46,-6l-4 0 -1 11 -34 -4 2 -21 -2 -16c0,2 -1,5 -2,8 -2,7 -1,4 -3,8z"/>
   <path class="fil8" d="M6553 3807c2,4 3,1 1,8 -2,6 -1,3 -5,9 -5,7 -7,10 -10,16l761 310 -11 4c-1,-1 -2,2 -3,2 32,-2 18,-14 38,-34 3,-14 11,-8 -17,-19 -120,-46 -702,-304 -733,-306 -12,2 -6,4 -21,10z"/>
   <path class="fil26" d="M5105 4408l49 -1 17 -3c3,45 -27,825 -30,935l-4 117c-2,21 1,10 -7,16l-157 0 -11 0 0 14 209 1 3 -80 30 -972 2 -76 -101 49z"/>
   <path class="fil23" d="M3604 5113l9 98 2 -5c8,-18 -1,5 2,-6l15 -60c16,-59 41,-144 67,-194 18,-34 30,-37 30,-56l-10 -250c-93,14 -106,257 -111,331 -1,33 -8,114 -4,142z"/>
   <path class="fil27" d="M5583 4228c8,15 -3,38 7,45l7 4c0,0 1,1 2,1l-19 4c-1,-15 -5,-41 3,-54zm71 40c15,-14 3,-27 14,-41 8,7 5,1 8,24 1,13 2,18 2,32 -7,-4 -1,0 -6,-5l-4 -6c-3,10 -2,5 -9,11 0,-7 1,-5 -1,-9l-4 -6zm-242 -6c-3,7 2,4 -7,7l-42 0c2,-6 -4,-7 19,-7 10,0 20,0 30,0zm273 -33l12 0c7,19 2,14 0,31 -2,8 3,15 6,26l-18 -7c0,0 -1,0 -2,-1 -1,-14 -4,-38 2,-49zm-46 0c18,-1 17,7 13,24 -3,16 2,14 5,33l-14 -6c-1,0 -2,1 -3,2 0,0 -1,1 -2,1 -1,-15 -6,-42 1,-54zm-276 9l9 7c-20,-3 -3,-1 -9,-7zm341 -11c7,3 2,-2 6,3l4 7c1,0 1,-3 1,-2 2,3 -2,-3 10,-9 -1,9 -5,18 -6,27 -1,9 0,9 -1,16 -1,16 0,7 -4,12l-10 -54zm-91 2c29,-6 19,12 19,27 0,9 4,7 1,24l-17 5c1,-16 3,-44 -3,-56zm328 60l-1 -10 -33 3c-12,-32 -22,-22 2,-55l32 0c0,-9 8,-9 -29,-8l-573 -4 0 78 602 -4z"/>
   <path class="fil28" d="M3974 4462l5 6c0,0 1,1 2,1l139 108 80 -90c7,-8 9,-12 16,-20 8,-7 29,-30 32,-37 -11,-11 -29,-19 -43,-28l-128 -77c-17,23 -33,44 -51,67l-52 70z"/>
   <path class="fil29" d="M4849 4416l-27 17 -49 154c26,-10 92,-55 111,-58l0 233 62 0c-2,-30 -2,-283 4,-291l-1 -5c-12,-5 -22,-21 -34,-33l-30 -36 -36 19z"/>
   <path class="fil22" d="M6096 4031c-5,-56 8,-114 37,-143 20,-19 34,-18 65,-24l303 -58c14,-3 26,-5 39,-8 22,-4 27,-8 34,-1 31,2 613,260 733,306 28,11 20,5 17,19l58 -7c0,-1 -1,-3 -2,-2l-601 -259c-38,-16 -181,-80 -206,-86 -71,11 -232,48 -312,64 -26,6 -50,11 -76,16 -45,10 -38,1 -62,33 -26,33 -48,96 -39,149l12 1z"/>
   <path class="fil30" d="M3588 4876c-3,16 1,25 0,40 -4,-37 24,-198 34,-244 18,-79 40,-131 89,-187 8,14 6,66 6,86 -97,51 -116,330 -115,447l-1 36c-1,0 -1,1 -1,2l4 57c-4,-28 3,-109 4,-142 5,-74 18,-317 111,-331l10 250c0,19 -12,22 -30,56 -26,50 -51,135 -67,194l-15 60c-3,11 6,-12 -2,6l-2 5 3 40c2,-4 28,-130 43,-174 15,-48 44,-122 72,-148 7,81 -25,68 -15,121 4,21 16,33 20,48 4,15 4,48 3,62l-28 32c9,-7 14,-16 29,-21l11 331c14,0 17,1 27,-4l-17 1c-2,-126 -48,-1220 -40,-1236 -7,-6 -5,-5 -15,-8l7 193c-65,25 -100,225 -111,303 -4,30 -8,102 -14,125z"/>
   <path class="fil31" d="M4231 4141c5,10 2,161 2,193 0,27 5,57 -7,59l39 23c14,-28 74,-90 79,-110l-8 2 0 -240 -9 -4 -4 0c-8,13 -64,51 -82,66l-10 11z"/>
   <path class="fil32" d="M5276 4444l1 92c2,7 3,21 3,32l3 128 4 174c6,10 2,22 6,33 5,-8 2,-23 4,-36 4,-35 -1,-102 -2,-140l-9 -422c-1,-44 -5,-93 14,-128 21,-39 56,-35 108,-37 76,-3 517,-15 559,10 31,18 47,50 45,99 -2,65 -18,681 -15,706l1 40c2,2 -1,2 7,0l1 1 -1 -13 1 -18 11 -456 7 -278c0,-46 -25,-77 -55,-93 -29,-16 -96,-12 -133,-13 -132,-2 -305,-3 -438,4 -55,2 -86,2 -107,41 -21,38 -18,84 -17,131 1,45 -2,100 2,143z"/>
   <polygon class="fil33" points="4649,5134 4654,5233 4884,5218 4884,5094 "/>
   <path class="fil34" d="M4107 5348l-192 21c42,4 97,-2 139,-3 48,-2 96,-4 143,-7 92,-4 189,-10 280,-12 45,-3 245,-17 269,-41 -24,6 -402,-9 -413,-14 -22,1 -32,11 -53,18 -18,7 -35,11 -54,16 -39,9 -78,17 -119,22z"/>
   <path class="fil32" d="M5507 3678c1,24 9,6 7,48 2,20 0,1 13,13 12,10 -3,11 16,13 -1,15 -5,23 0,37 52,-17 152,-73 176,-103l-38 -98 -83 48c-30,16 -63,28 -91,42z"/>
   <path class="fil9" d="M5647 5358c-11,-4 -6,5 -12,-8 0,-1 -7,-27 10,-32 5,13 4,26 2,40zm-25 -31c9,-10 -2,-4 10,-10l0 41c-9,-12 -3,-1 -5,-23 -5,21 -5,7 -6,9 -4,6 0,6 -7,14l-1 -34c8,-3 -1,-2 6,-1 0,1 2,3 3,4zm80 13c-8,-7 -10,-6 -10,-18 8,7 13,9 18,19 -5,7 -10,11 -19,16 1,-2 5,-21 11,-17zm-39 -5c-3,12 1,15 3,25 -7,-3 -5,-3 -14,-2l-1 -38c20,0 6,0 9,4 8,-3 10,-5 21,-2l-9 9 7 9c-9,8 -4,-1 -5,10 9,6 5,4 4,8l-7 2c-3,-5 -2,-1 -4,-10 -3,-9 2,-16 -4,-15zm123 -37l-285 1 6 81c24,11 243,8 272,0l7 -82z"/>
   <path class="fil35" d="M5373 5469c-14,-9 -16,-7 -28,-19 -12,-12 -12,-12 -21,-30 -12,-10 -8,-95 -9,-116l-21 -855c-1,-56 -10,-199 1,-245 9,-36 27,-53 68,-56 102,-8 562,-17 602,7 27,17 42,43 42,87 -1,41 -3,79 -3,122 -1,81 -4,162 -6,243l-20 730c-1,47 5,74 -22,104 -27,29 -44,30 -94,31 -64,2 -461,12 -489,-3zm-76 -602c6,18 6,188 7,224 1,39 4,305 12,331 9,25 32,50 61,55 56,9 374,4 452,2 34,-1 78,3 104,-12 22,-13 45,-34 48,-67 6,-69 6,-150 8,-221 1,-35 1,-206 8,-224 -3,-25 13,-641 15,-706 2,-49 -14,-81 -45,-99 -42,-25 -483,-13 -559,-10 -52,2 -87,-2 -108,37 -19,35 -15,84 -14,128l9 422c1,38 6,105 2,140z"/>
   <polygon class="fil36" points="4972,4472 4963,5395 4962,5472 4973,5472 5001,4395 4974,4388 4972,4388 "/>
   <path class="fil37" d="M5463 4760c12,0 9,4 9,-34l7 -269c7,16 -7,260 -5,303 67,4 164,-1 237,0 2,0 16,1 17,1 24,-3 11,4 14,-9l-180 -5c-17,-2 -12,2 -18,-9l-14 -23 4 -176 -20 -1 0 -43 21 0 1 -41 -66 0 -7 306z"/>
   <path class="fil38" d="M6142 4032l-4 13c-2,2 -3,5 -5,8 -3,4 -3,3 -6,6 0,19 -22,42 -28,61l92 8c12,-16 15,-27 26,-43l12 -34 5 -16c10,-31 15,-68 26,-99 9,-22 17,-49 42,-53 8,-1 17,-2 25,-2 -2,-1 -6,-3 -9,-5 -5,-2 -3,-3 -12,-6l13 -10c1,0 2,-1 2,-2 1,-1 2,-1 3,-2 -150,21 -149,134 -182,176z"/>
   <path class="fil22" d="M4946 4762l-2 632 19 1 9 -923 -22 -1c-6,8 -6,261 -4,291z"/>
   <path class="fil39" d="M4344 4306c9,-4 145,-176 153,-192l-161 -46 0 240 8 -2z"/>
   <path class="fil40" d="M4223 4143l-12 14c-11,13 -118,146 -125,161l140 75c12,-2 7,-32 7,-59 0,-32 3,-183 -2,-193 -6,1 -2,-1 -8,2z"/>
   <path class="fil41" d="M5287 4870l10 418c0,29 2,59 3,89 2,37 1,48 20,75 39,42 47,38 121,40 108,2 217,0 326,-1 41,0 124,2 159,-7 10,-5 16,-11 27,-16 13,-17 34,-27 39,-60 3,-27 3,-64 4,-93l-1 -11 2 -19 0 -19 3 -54 0 -38 1 -17 4 -162c-8,2 -5,2 -7,0l-1 -40c-7,18 -7,189 -8,224 -2,71 -2,152 -8,221 -3,33 -26,54 -48,67 -26,15 -70,11 -104,12 -78,2 -396,7 -452,-2 -29,-5 -52,-30 -61,-55 -8,-26 -11,-292 -12,-331 -1,-36 -1,-206 -7,-224 -2,13 1,28 -4,36 -4,-11 0,-23 -6,-33z"/>
   <path class="fil42" d="M6555 5360c16,0 17,10 26,-3 -1,12 -1,4 -7,15l-7 -6c-1,0 -1,-1 -2,-1l-7 -4c-1,0 -2,-1 -3,-1zm63 -29l6 2c-7,7 -14,10 -25,13 12,-13 11,-8 19,-15zm-55 0l18 1 1 23 -29 -1 0 -17 4 6c0,0 -1,2 -1,3 0,0 -1,2 -1,3 25,-6 7,-1 25,-1 0,-2 -2,-6 -2,-6l3 -10 -28 0c3,-8 10,-14 21,-13l5 2c-10,9 -12,6 -16,10zm55 0c-15,-5 -16,-2 -23,-9 0,0 0,-10 23,-5 11,2 1,-1 8,4 -18,12 19,-7 -10,5l2 5zm-69 -21c8,-9 -9,-6 14,-6 21,0 11,0 15,4 -8,5 -20,5 -29,2zm-42 28c4,9 6,21 10,29 42,0 24,-5 39,13 11,0 15,-3 20,3 14,-9 7,-9 17,-13 0,1 0,1 0,2l4 11c20,-8 1,-1 18,-14 -18,1 -6,0 -17,10l-1 -19c33,4 21,-2 31,18 11,-10 26,-2 40,-8l1 -27c1,-39 -16,-68 -27,-98l-154 -3c9,34 16,55 19,96z"/>
   <path class="fil25" d="M6340 5013c1,38 -16,116 -35,140 29,-2 89,8 121,12 37,5 80,8 117,15 7,-22 16,-38 22,-64 12,-54 3,-45 -14,-50 -5,6 -16,50 -24,64l-141 -21c-2,-15 8,-43 12,-60l4 -36c-21,0 -51,-6 -62,0z"/>
   <path class="fil43" d="M6222 5262c0,0 -2,16 -4,8 0,0 -1,2 -2,3l-73 11c-4,0 -11,1 -15,2l-10 5c-1,-1 -2,1 -3,2l275 -27 2 10c9,39 19,55 13,104 -3,26 -14,69 -29,87l-423 1c-11,5 -17,11 -27,16l475 4c9,-47 27,-86 23,-140 -4,-44 -7,-66 -16,-107 16,1 38,4 49,-2l-51 -3c-14,13 -164,14 -184,26z"/>
   <path class="fil39" d="M3915 5369l-89 5 -1 31 8 13 64 0c0,-9 -1,-17 3,-22 2,-13 26,-8 58,-9l198 -5c87,-3 179,-8 265,-7l-3 70 20 1 1 -72 20 -2 -4 73c5,3 5,5 13,7 6,-8 5,-13 9,-20l0 -85c-91,2 -188,8 -280,12 -47,3 -95,5 -143,7 -42,1 -97,7 -139,3z"/>
   <path class="fil44" d="M4623 5265l-5 0 -21 2 -264 25c11,5 389,20 413,14 47,1 125,-52 144,-60 -6,-9 2,-2 -11,-5l-256 24z"/>
   <path class="fil45" d="M6340 5013c11,-6 41,0 62,0l-5 -62 147 27c10,19 8,49 7,71l0 17c17,5 26,-4 14,50 -6,26 -15,42 -22,64l4 -2c16,-13 36,-81 37,-109 2,-21 2,-40 2,-61 0,-24 -4,-37 -4,-59l3 -2c-7,-5 -16,-5 -30,-7l-93 -15c-31,-5 -97,-19 -125,-17l-7 2c10,36 9,66 10,103z"/>
   <path class="fil40" d="M4514 3713c47,-3 174,-92 188,-149l-51 -51c-27,31 -52,59 -79,87 -31,30 -62,54 -86,78 9,11 16,22 28,35z"/>
   <path class="fil18" d="M6621 5401c4,5 0,-3 3,5 -11,4 -18,1 -30,1l2 -20c29,0 11,-1 20,9l3 4c0,0 1,1 2,1zm-67 -16c1,0 4,-5 12,-5 7,0 9,5 9,4 1,-1 2,1 2,2 3,2 8,-12 5,10 -1,13 2,4 -6,9 -6,8 1,6 -3,21 -21,3 -20,2 -28,-5l29 1c-5,-18 -2,-7 -19,-15 -7,0 -4,3 -9,-1l0 -19c5,-4 2,-1 8,-2zm-48 5c-3,39 -11,63 -18,98 26,1 148,4 163,-2 11,-45 18,-69 20,-119l-2 -24 -1 27c-14,6 -29,-2 -40,8 -5,15 2,10 -12,11l8 -12c-15,8 -3,7 -12,10 -1,1 -2,1 -3,1 -5,1 -11,-3 -12,-5l-4 -11c0,-1 0,-1 0,-2 -10,4 -3,4 -17,13 -5,-6 -9,-3 -20,-3 -15,-18 3,-13 -39,-13 -4,-8 -6,-20 -10,-29l-1 52z"/>
   <path class="fil46" d="M6573 3768c25,6 168,70 206,86l601 259c1,-1 2,1 2,2 9,-6 6,-3 9,-14 0,-1 -1,-3 -1,-2l-8 -6c-4,-2 -9,-4 -14,-5l-76 -33c-34,-15 -67,-29 -101,-44 -69,-30 -135,-59 -204,-88l-407 -175 -7 20z"/>
   <path class="fil46" d="M6490 4065c194,70 386,145 580,216l144 53c14,5 41,13 49,22l25 5 3 -10c-7,-13 -20,-8 -33,-19l-4 0 -759 -290 -5 23z"/>
   <path class="fil47" d="M6372 3865c7,5 -4,-1 11,6 4,1 2,0 7,2l142 -19c20,4 519,217 555,233 30,13 61,25 92,38l69 30c20,7 5,-1 24,0l14 1c1,0 2,-3 3,-2l11 -4 -761 -310c-47,5 -125,27 -167,25z"/>
   <path class="fil17" d="M6117 4031l25 1c33,-42 32,-155 182,-176 18,-2 35,-4 48,9 42,2 120,-20 167,-25 3,-6 5,-9 10,-16 4,-6 3,-3 5,-9 2,-7 1,-4 -1,-8 -91,14 -187,34 -279,51 -24,5 -46,9 -69,13 -31,6 -46,3 -60,23 -24,36 -32,85 -28,137z"/>
   <path class="fil17" d="M6407 3890l-19 149 103 3c1,-54 14,-117 31,-163l-115 11z"/>
   <path class="fil48" d="M6006 4965l-1 18 308 -59c9,18 17,80 9,99 -4,36 -11,59 -25,88 -12,28 -15,20 -89,27 -67,7 -140,16 -207,19l-1 17 305 -21c19,-24 36,-102 35,-140 -1,-37 0,-67 -10,-103l7 -2c-10,-9 -62,6 -79,9 -27,5 -56,11 -83,16 -55,10 -114,24 -169,32z"/>
   <polygon class="fil22" points="5174,5407 5185,5408 5217,4657 5225,4484 5201,4485 5204,4435 "/>
   <path class="fil49" d="M3825 5405l0 90c3,17 -4,6 8,10l644 0 0 -73c-4,7 -3,12 -9,20 -8,-2 -8,-4 -13,-7 -3,13 1,44 -10,49 -10,-3 -7,-2 -7,-18 0,-11 1,-19 0,-30l-20 -1 -3 49 -515 0 0 -98c-4,5 -3,13 -3,22l-64 0 -8 -13z"/>
   <path class="fil50" d="M4652 4688c1,1 1,1 1,3 1,1 1,2 2,2l6 107c6,1 7,-1 9,0l9 1 1 13c-9,8 -19,10 -30,12 -3,-21 -3,-46 -3,-68 -1,-30 -8,-61 5,-70zm6 231l36 -108c-20,-11 -13,-57 -14,-80 -1,-23 -3,-69 24,-62 8,5 5,-2 9,12 2,5 2,15 2,22l3 38c5,-27 2,-31 3,-57l0 -25 29 -8 19 -60 -143 79 14 298c3,-6 7,-13 8,-21 3,-15 -1,-27 10,-28z"/>
   <path class="fil51" d="M4580 4910l11 205 17 -42 10 192 5 0c-2,-72 -11,-145 -9,-214 -5,-19 -9,-236 -17,-297 -3,-20 0,-41 -2,-59l-4 -121c-15,2 -20,8 -28,17l17 319z"/>
   <path class="fil5" d="M5997 5266c20,-5 90,2 111,6l114 -10c20,-12 170,-13 184,-26l-406 -24 -3 54z"/>
   <path class="fil9" d="M5635 3472c49,36 82,73 162,81l28 -63c-28,-11 -90,-21 -107,-38 -28,-5 -58,-30 -83,-39 -8,4 -27,17 -31,23 8,14 19,25 31,36z"/>
   <path class="fil52" d="M7115 5156l0 11c-8,1 -15,5 -20,-7l-2 -7c7,-5 5,-4 17,-6 -21,-6 -15,2 -15,-18 1,0 1,2 2,2 11,16 9,3 21,2 -3,7 17,5 -3,5 12,7 8,-3 8,10l-13 -2c13,4 1,0 5,10zm0 -56l10 -1 1 31c-4,6 3,6 -8,3 3,-6 -5,1 5,-9l-27 -3c1,-22 -4,-14 6,-17 3,9 0,-9 -1,5 -1,8 -3,-1 1,6 9,-2 2,-6 10,-3 2,1 0,3 12,5l-9 -17zm39 0l18 6c-5,10 2,6 -15,11 13,4 8,0 16,9 -16,-6 -12,-5 -30,-8l10 8c1,-1 2,0 3,0l-13 3 2 -18 14 -4 -5 -7zm0 0c-17,-6 -8,1 -13,-11 40,9 26,-1 29,10l-16 1zm-39 0l-19 -3c7,-9 17,-11 29,-12 -8,13 3,4 -14,13l4 2zm-34 59l6 -1c1,4 1,7 1,8 5,14 7,14 30,13l8 -18c5,7 1,6 10,3 -6,23 -2,35 28,28 4,-17 1,-13 -9,-26 -9,6 -5,-3 -17,4 6,-20 1,-11 20,-26 0,0 1,-1 2,-2 -20,1 -14,-1 -20,-9l25 5 5 -8c0,10 -1,12 -7,22l3 7c13,-6 20,-10 34,-3l2 -34c3,-32 -12,-59 -20,-84l-103 -17c0,20 7,24 7,70 -1,11 0,25 0,36 -2,19 -6,16 -5,32z"/>
   <path class="fil17" d="M6234 4035l28 1 67 0 27 -140 -52 3c21,-2 29,-1 48,-7l-25 -11c-8,0 -17,1 -25,2 -25,4 -33,31 -42,53 -11,31 -16,68 -26,99z"/>
   <path class="fil53" d="M5543 3789c-5,-14 -1,-22 0,-37 -19,-2 -4,-3 -16,-13 -13,-12 -11,7 -13,-13 2,-42 -6,-24 -7,-48l-114 38 45 103c27,-3 84,-19 105,-30z"/>
   <path class="fil23" d="M3588 4916l12 140c0,-1 0,-2 1,-2l1 -36c-1,-117 18,-396 115,-447 0,-20 2,-72 -6,-86 -49,56 -71,108 -89,187 -10,46 -38,207 -34,244z"/>
   <path class="fil31" d="M6402 5013l-4 36 153 0c1,-22 3,-52 -7,-71l-147 -27 5 62z"/>
   <path class="fil54" d="M5719 4782l-196 -3c-28,0 -37,6 -46,-17l251 3 -9 17zm-256 -22l1 5 18 25 41 1 0 19 264 -3c4,-2 4,-5 11,-1 5,-4 3,7 5,-8l-1 -33c-2,-8 -1,-14 -1,-23 -1,-4 -1,-9 -2,-12 -2,-10 2,-2 -3,-7l-3 5c0,19 2,25 -16,27 -10,0 -28,-1 -35,-3 -3,13 10,6 -14,9 -1,0 -15,-1 -17,-1 -73,-1 -170,4 -237,0 -2,-43 12,-287 5,-303l-7 269c0,38 3,34 -9,34z"/>
   <path class="fil55" d="M6551 5066l0 -17 -153 0c-4,17 -14,45 -12,60l141 21c8,-14 19,-58 24,-64z"/>
   <path class="fil36" d="M5130 5472c8,-6 5,5 7,-16l4 -117c3,-110 33,-890 30,-935l-17 3c6,8 1,-4 3,7 1,4 1,5 1,9 0,4 -1,12 -1,16 0,11 0,22 -1,33 0,23 -1,46 -1,69l-11 398c-4,177 -6,356 -14,533z"/>
   <path class="fil56" d="M7109 5189c0,-1 1,-2 1,-2 0,0 1,-2 1,-2l6 -5c-4,8 -1,5 -5,15l-28 -4c8,-7 -2,-6 25,-2zm54 -37c-6,3 -3,3 -11,8 10,5 -3,-2 3,6 10,13 13,9 9,26 -30,7 -34,-5 -28,-28 -9,3 -5,4 -10,-3l-8 18c-23,1 -25,1 -30,-13 0,-1 0,-4 -1,-8l-6 1c-8,33 -15,54 -27,83 11,0 80,6 93,13l35 3c4,-20 15,-38 20,-64 4,-19 11,-58 0,-72l-2 34c-14,-7 -21,-3 -34,3l-3 -7z"/>
   <path class="fil18" d="M6424 5348c4,54 -14,93 -23,140l72 -2c8,-34 15,-58 20,-96l2 -48c-7,7 -4,16 -7,10 0,-1 -1,1 -2,2 -3,-9 7,-5 -12,-7l-50 1z"/>
   <path class="fil40" d="M6081 4044l57 1 4 -13 -25 -1 -21 0 -12 -1c-9,-53 13,-116 39,-149 24,-32 17,-23 62,-33 26,-5 50,-10 76,-16 80,-16 241,-53 312,-64l7 -20c-52,8 -113,25 -166,37 -22,5 -269,55 -281,66 -43,38 -68,120 -63,191l11 2z"/>
   <path class="fil9" d="M6942 3704l-14 46c53,-1 160,-25 186,-54l-18 -36c-22,6 -48,18 -73,26 -26,8 -52,14 -81,18z"/>
   <path class="fil57" d="M6352 3892c-19,6 -27,5 -48,7l52 -3 -27 140 -67 0 27 1 60 1 39 1 19 -149c-17,2 -38,7 -55,2z"/>
   <path class="fil34" d="M5819 4584c-10,-15 0,-5 -3,-20 -3,-14 -4,-3 1,-18 9,4 10,-2 10,10 -1,24 9,20 -8,28zm-23 -13c-1,-1 -5,-4 -5,-5 -3,-5 -1,3 -2,-5 -1,-19 2,-8 7,-10 3,11 -6,-6 0,13 4,12 6,6 1,20 -7,-4 -7,3 -5,-8 1,-4 0,7 4,-5zm10 29l66 -1 1 -67 -70 0 -56 0 -1 67 60 1z"/>
   <path class="fil58" d="M5581 4494l187 1 0 -39c-37,1 -162,-8 -187,-2l0 40z"/>
   <path class="fil42" d="M6424 5348l50 -1c19,2 9,-2 12,7 1,-1 2,-3 2,-2 3,6 0,-3 7,-10 -1,-36 -7,-69 -18,-100l-20 -3c-11,6 -33,3 -49,2 9,41 12,63 16,107z"/>
   <path class="fil28" d="M4155 4193c1,0 2,0 2,0 0,1 1,1 2,1 8,-2 16,-11 24,-17 10,-8 16,-15 28,-20l12 -14c12,-17 22,-29 35,-45 13,-15 22,-31 36,-43l29 9 4 0c8,-9 9,-9 19,-16 0,0 9,-7 9,-7 10,-10 7,0 6,-12 -20,-7 -41,-20 -56,-29l-150 193z"/>
   <path class="fil59" d="M4838 4708l-10 -79c-4,-15 1,-5 -6,-12l-14 6 3 135c3,20 -5,7 9,10 7,-11 1,-40 3,-64 7,14 5,40 7,47 5,19 -3,8 9,11 11,-2 7,-17 9,-40 1,-13 0,-29 4,-40l2 73c21,-2 13,-11 12,-69 -1,-27 0,-57 -2,-83 -33,5 -17,30 -26,105z"/>
   <path class="fil57" d="M6096 4031l21 0c-4,-52 4,-101 28,-137 14,-20 29,-17 60,-23 23,-4 45,-8 69,-13 92,-17 188,-37 279,-51 15,-6 9,-8 21,-10 -7,-7 -12,-3 -34,1 -13,3 -25,5 -39,8l-303 58c-31,6 -45,5 -65,24 -29,29 -42,87 -37,143z"/>
   <path class="fil26" d="M6627 4147c-11,-9 -60,-22 -73,-27 -35,-12 -51,-11 -90,-14 -58,-4 -131,-13 -188,-12 37,26 286,49 351,53z"/>
   <path class="fil59" d="M4826 5013c9,-6 6,-2 7,-17l5 -63c0,14 1,28 1,42 0,44 0,31 7,34 9,-5 5,3 7,-14l-4 -132 -18 6 -5 88c-8,-19 -8,-62 -13,-76 -2,-7 0,-3 -3,-6l-12 3 -3 18c0,7 1,14 1,20 1,28 -3,94 7,103 10,-5 6,5 7,-14l0 -50c3,9 5,23 6,34 2,28 3,23 10,24z"/>
   <path class="fil60" d="M4746 5306c-24,24 -224,38 -269,41l0 85 0 73 418 0c5,-6 5,8 2,-3l-1 -3 -401 2 -15 0 4 -135c2,-16 -3,-11 9,-13 77,-3 150,-10 222,-28 34,-9 65,-18 95,-30 18,-8 74,-38 81,-40 3,-7 5,-8 4,-17l-16 3c13,3 5,-4 11,5 -19,8 -97,61 -144,60z"/>
   <path class="fil32" d="M6600 3461c8,16 77,56 95,49 8,-3 21,-19 25,-25 -12,-9 -28,-21 -39,-32 -12,-13 -25,-30 -39,-38l-17 24c-5,5 -16,9 -27,10l2 12z"/>
   <path class="fil53" d="M6588 3356c-14,20 -32,30 -41,44 11,22 36,54 53,61l-2 -12c11,-1 22,-5 27,-10l17 -24c-13,-18 -29,-33 -41,-54 -10,-10 1,-8 -13,-5z"/>
   <path class="fil32" d="M6290 4795c0,1 5,6 6,6 0,17 2,31 -4,43 38,-1 108,-13 131,-33l-27 -34c-31,5 -40,23 -106,18z"/>
   <path class="fil53" d="M6292 4844c6,-12 4,-26 4,-43 -1,0 -6,-5 -6,-6 -38,-4 -52,-13 -82,-23l-1 66 85 6z"/>
   <path class="fil61" d="M6005 4983l1 13 304 -58c7,28 15,53 12,85 8,-19 0,-81 -9,-99l-308 59z"/>
   <path class="fil62" d="M4514 4269l16 12c14,-15 103,-125 107,-137 -4,-7 -5,-8 -11,-13 -13,4 -48,53 -58,66 -15,18 -45,53 -54,72z"/>
   <polygon class="fil57" points="6115,5293 5995,5304 5996,5315 6392,5276 6390,5266 "/>
   <path class="fil63" d="M5719 4782l9 -17 -251 -3c9,23 18,17 46,17l196 3z"/>
   <path class="fil48" d="M6108 5272l-111 13 -2 19 120 -11c1,-1 2,-3 3,-2l10 -5c4,-1 11,-2 15,-2l73 -11c1,-1 2,-3 2,-3 2,8 4,-8 4,-8l-114 10z"/>
   <path class="fil63" d="M5793 4728l3 -5 -252 -4 9 16 184 3c29,0 38,6 56,-10z"/>
   <polygon class="fil55" points="7228,5383 7217,5447 7265,5447 7274,5367 7229,5367 "/>
   <path class="fil64" d="M4760 4890c-12,2 -11,-5 -9,33 2,36 -5,105 19,105 32,-1 18,-100 17,-146 -16,4 -13,7 -12,28 2,24 7,85 -2,97 -18,-10 -2,-97 -13,-117z"/>
   <path class="fil65" d="M5787 4807l-6 14 -225 3c-17,-3 -8,-10 -16,-6 1,30 13,22 43,21 21,0 41,-1 62,-2 45,-1 89,-2 134,-4 11,-2 17,-17 19,-27 -7,-4 -7,-1 -11,1z"/>
   <path class="fil63" d="M5540 4818c8,-4 -1,3 16,6l225 -3 6 -14 -264 3c18,4 7,-5 17,8z"/>
   <path class="fil66" d="M5544 4738c6,11 1,7 18,9l180 5c7,2 25,3 35,3 18,-2 16,-8 16,-27 -18,16 -27,10 -56,10l-184 -3 -9 -16c-8,6 -8,-13 -5,9l5 10z"/>
   <path class="fil40" d="M4885 4397l30 36c12,12 22,28 34,33l-2 -107 -62 38z"/>
   <polygon class="fil67" points="4591,5115 4597,5267 4618,5265 4608,5073 "/>
   <path class="fil68" d="M5014 4698l48 -16c-14,0 -5,0 -10,-3 0,-16 5,-62 -2,-74 -13,1 -28,9 -38,17 0,16 -4,65 2,76z"/>
   <path class="fil37" d="M4942 5487c76,3 164,7 239,0l3 -34 1 -45 -11 -1 -3 80 -209 -1 0 -14 1 -77 -19 -1c-8,-1 -5,-2 -3,6 7,20 1,63 1,87z"/>
   <path class="fil64" d="M4765 4642l5 143 34 -11 -1 -21 -21 6 -1 -40c20,-8 17,-1 17,-23l-10 -2c0,0 -1,0 -2,0l-4 -1c0,0 -1,0 -2,0l-1 -33c8,-7 11,-7 22,-10l-1 -22 -35 14z"/>
   <path class="fil69" d="M4694 4811l8 -20c-16,-6 -9,-95 -7,-101 8,4 2,-4 6,5 4,7 4,79 3,85 6,-7 3,-4 6,-13 1,-3 1,-4 3,-7 2,-4 3,-3 5,-6l-3 -51c0,-7 0,-17 -2,-22 -4,-14 -1,-7 -9,-12 -27,-7 -25,39 -24,62 1,23 -6,69 14,80z"/>
   <path class="fil40" d="M7229 5367l45 0 0 -13 -9 -57 -48 1c6,21 12,43 12,69z"/>
   <polygon class="fil40" points="6344,4057 6490,4065 6495,4042 6491,4042 6388,4039 6349,4038 "/>
   <path class="fil70" d="M5530 4715l14 23 -5 -10c-3,-22 -3,-3 5,-9l252 4c5,5 1,-3 3,7 1,3 1,8 2,12 0,9 -1,15 1,23 0,-18 -3,-28 2,-40l6 -10 -268 0 7 -305 -3 0 -9 303 -7 2z"/>
   <path class="fil64" d="M4743 4675c4,8 4,12 4,21 0,4 0,8 -1,12 -4,13 -2,3 -6,7l-4 3 -4 -16c-3,11 -3,13 -9,20 1,17 -2,66 5,78 23,-7 2,-27 10,-57l3 -5c14,9 6,36 10,52 17,-1 11,-8 11,-28 -1,-19 -3,-23 -6,-38 -3,-17 13,-58 -6,-70l-7 21z"/>
   <path class="fil64" d="M4722 5037c35,2 26,-47 22,-59 -6,-19 -33,-36 -16,-59 12,10 0,12 10,15 9,-4 9,3 7,-17 -1,-5 -5,-15 -6,-18 -29,-5 -34,27 -26,55 5,22 33,38 18,64 -8,-4 -2,-2 -7,-10 -2,-4 0,-2 -3,-7 -8,-13 7,2 -3,-3 -13,9 -4,30 4,39z"/>
   <path class="fil57" d="M6238 5392l1 34 -44 1 2 24 65 0c-1,-21 -1,-90 -9,-103 -6,17 -12,21 -15,44z"/>
   <path class="fil23" d="M3542 4363c17,-14 36,-74 54,-98l-61 6 7 92z"/>
   <polygon class="fil37" points="5204,4435 5201,4485 5225,4484 5230,4362 5206,4359 "/>
   <path class="fil53" d="M6195 5427l44 -1 -1 -34 -80 1c-7,7 -8,21 -9,33l46 1z"/>
   <path class="fil64" d="M4685 4976l-1 -44c14,2 11,2 12,20 0,32 -3,21 -11,24zm-10 46c1,21 -1,22 7,26 12,-7 4,-19 5,-50 22,-15 22,-24 21,-55 -2,-34 -7,-34 -36,-28l3 107z"/>
   <path class="fil32" d="M6158 5393l80 -1c3,-23 9,-27 15,-44 -45,5 -82,9 -95,45z"/>
   <path class="fil71" d="M3930 4783c33,-26 7,-38 -39,-102l-18 -25c-5,-5 -3,-4 -11,-6 -8,18 56,96 68,133z"/>
   <polygon class="fil37" points="4949,4466 4950,4471 4972,4472 4972,4388 4971,4359 4947,4359 "/>
   <path class="fil14" d="M5536 4454l-1 41 -1 44 -4 176 7 -2 9 -303c-12,1 -9,1 -10,16 0,9 0,18 0,28z"/>
   <path class="fil72" d="M5506 4150c43,1 243,8 268,-4 -30,-7 -244,-7 -268,4z"/>
   <path class="fil73" d="M6324 3856c-1,1 -2,1 -3,2 0,1 -1,2 -2,2l-13 10c9,3 7,4 12,6 3,2 7,4 9,5l25 11c17,5 38,0 55,-2l0 -3 -17 -14c-5,-2 -3,-1 -7,-2 -15,-7 -4,-1 -11,-6 -13,-13 -30,-11 -48,-9z"/>
   <path class="fil42" d="M5050 4605c7,12 2,58 2,74 5,3 -4,3 10,3l18 -2 0 -42 -2 -50c-10,5 -21,8 -28,17z"/>
   <path class="fil31" d="M4900 5468l0 13 2 6 40 0c0,-24 6,-67 -1,-87 -14,20 -23,55 -41,68z"/>
   <path class="fil17" d="M6390 3873l17 14c20,-2 49,-6 71,-9 11,-1 25,-2 36,-4 16,-3 12,-4 18,-20l-142 19z"/>
   <path class="fil30" d="M3542 4363l2 24c11,9 9,-1 5,3l66 -127 -19 2c-18,24 -37,84 -54,98z"/>
   <path class="fil36" d="M5062 4682l-48 16 85 11 -2 -64c0,-2 -1,-2 -1,-3l-16 -4 0 42 -18 2z"/>
   <path class="fil24" d="M4438 5446c1,11 0,19 0,30 0,16 -3,15 7,18 11,-5 7,-36 10,-49l4 -73 -20 2 -1 72z"/>
   <path class="fil74" d="M5562 4380c22,-8 3,-12 16,3 8,-2 16,-3 30,-3 -5,-12 -2,-3 -6,-8 -1,-1 -3,-4 -4,-5 -5,-6 -5,-4 5,-13l4 -3c-7,-5 -13,-4 -13,-13 1,-13 8,-2 12,-18l-21 0 1 57c-6,-13 -10,-9 -7,-24 3,-17 7,-17 -2,-33l-11 0c-6,7 -3,-2 -5,11l1 49z"/>
   <path class="fil75" d="M6767 5354c-4,4 -4,12 -3,19 0,4 3,10 3,10 1,9 7,2 -4,7l7 10 29 0 7 -11c-9,-3 -4,2 -3,-8 1,-5 3,-6 3,-14 0,-11 -3,-17 -9,-21 -19,3 -17,2 -30,8z"/>
   <path class="fil69" d="M4652 4688c-13,9 -6,40 -5,70 0,22 0,47 3,68 11,-2 21,-4 30,-12l-1 -13 -9 -1c-2,-1 -3,1 -9,0l-6 -107c-1,0 -1,-1 -2,-2 0,-2 0,-2 -1,-3z"/>
   <path class="fil76" d="M4223 4143c6,-3 2,-1 8,-2l10 -11c18,-15 74,-53 82,-66l-29 -9c-14,12 -23,28 -36,43 -13,16 -23,28 -35,45z"/>
   <path class="fil77" d="M4180 4695l-24 -13c-19,-6 -6,-2 -11,1 -7,11 2,11 15,22 5,3 8,6 13,9 10,8 2,6 17,10 -2,-10 -1,-5 -5,-11 -1,-1 -3,-4 -4,-4l-3 -4c10,3 9,5 19,7 3,-15 -1,-12 -10,-22 14,5 6,7 21,9 0,-12 6,-3 -16,-20 -2,-2 -18,-16 -20,-17 -21,-11 -16,9 8,33z"/>
   <path class="fil16" d="M5277 4536l-1 -92 -2 -85c-15,6 -12,2 -10,41 0,16 1,32 1,47 1,9 0,75 4,82 6,9 3,4 8,7z"/>
   <path class="fil77" d="M4250 4547c-4,13 4,13 17,24 9,7 17,14 27,20 2,-4 0,-3 2,-7l-13 -14c9,3 14,8 22,6 1,-7 0,-3 -5,-12l-4 -7c23,15 27,9 7,-8 -13,-11 -25,-23 -34,-23 -12,16 1,6 17,35 -13,-7 -25,-16 -36,-14z"/>
   <path class="fil78" d="M5288 5453l32 -1c-19,-27 -18,-38 -20,-75 -1,-30 -3,-60 -3,-89 -7,14 -9,138 -9,165z"/>
   <path class="fil40" d="M6669 5343l2 24 8 0 2 -36c2,-30 -10,-61 -18,-85l-21 -1c11,30 28,59 27,98z"/>
   <path class="fil79" d="M7053 5111l-14 -2 -12 18c-7,-6 -9,-13 -14,-23l-15 -1c2,18 -1,26 -3,42 19,4 11,2 18,-12l6 13c9,-3 5,-1 9,-8 1,1 2,1 2,3 2,10 9,11 13,11 5,-6 5,-7 7,-18 1,-8 1,-15 3,-23z"/>
   <path class="fil79" d="M6762 5109c6,6 -5,4 11,6 10,-8 3,-2 9,-14l6 13c11,-3 6,-1 11,-8 2,3 12,36 21,-6l1 -23c-18,0 -10,-1 -21,11l-8 7c-5,-17 -5,-22 -23,-24 0,13 0,30 -7,38z"/>
   <path class="fil61" d="M4495 5501l-2 -148c-12,2 -7,-3 -9,13l-4 135 15 0z"/>
   <path class="fil31" d="M6495 5342l-2 48 8 6c2,-14 -3,2 5,-6l1 -52c-3,-41 -10,-62 -19,-96l-11 0c11,31 17,64 18,100z"/>
   <path class="fil55" d="M6671 5367c-2,50 -9,74 -20,119l10 1c8,-35 17,-59 21,-98 2,-18 5,-45 -1,-58l-2 36 -8 0z"/>
   <path class="fil79" d="M6697 5072c17,5 7,-2 9,9 -12,4 -7,1 -9,-9zm-21 21l4 10c12,0 4,2 11,-2l7 -7 6 12 14 2c-7,-27 13,-23 1,-38 -8,-10 -23,-10 -36,-11 0,12 1,25 -7,34z"/>
   <path class="fil79" d="M6659 5067c4,12 4,22 -11,18 -7,-9 -4,-9 -2,-17l13 -1zm-31 16c12,26 28,16 46,6 4,-17 1,-31 -16,-35 -23,-4 -29,9 -30,29z"/>
   <path class="fil64" d="M4658 4919c-7,21 -4,46 -3,70 0,12 1,24 1,36 1,31 0,24 9,27 3,-5 2,-1 3,-8 0,-1 1,-5 1,-6 0,-4 -1,-12 -1,-17l-3 -95c-2,-8 1,-4 -7,-7z"/>
   <path class="fil74" d="M5744 4379c12,-6 -1,-9 13,-22 5,7 1,13 7,23 4,-2 7,5 6,-29l-3 -35c-13,5 -7,2 -13,16 -9,-15 -2,-11 -14,-14 -2,11 -1,53 4,61z"/>
   <path class="fil55" d="M6473 5486l15 2c7,-35 15,-59 18,-98 -8,8 -3,-8 -5,6l-8 -6c-5,38 -12,62 -20,96z"/>
   <path class="fil80" d="M5432 5030c6,-2 15,9 4,-14 -8,2 -13,-1 -20,-3l1 1c-26,2 -21,0 -23,5 0,1 0,2 -2,6l-6 -9c-1,-1 -2,-2 -3,-3l0 19c-2,-20 3,-13 -8,-16 -5,3 -5,10 -5,16 -12,-7 0,2 -5,-5l-5 -8c-1,-1 -1,-2 -2,-3 1,10 -1,3 2,11 0,1 0,2 1,3 10,21 12,-1 48,4l2 0c16,-1 18,1 21,-4z"/>
   <path class="fil81" d="M5997 5285l111 -13c-21,-4 -91,-11 -111,-6l0 19z"/>
   <path class="fil82" d="M5940 4279l-1 -2 0 -18c-5,16 -30,14 -31,-4 0,-18 21,-24 32,-5l0 -20 1 -3 -32 0c-24,33 -14,23 -2,55l33 -3z"/>
   <path class="fil79" d="M6883 5098c14,5 5,0 8,9 -15,0 -10,5 -8,-9zm-5 31l0 -10c16,2 18,2 28,-5 0,-26 -14,-31 -38,-28l-6 42 16 1z"/>
   <path class="fil72" d="M5324 5420c9,18 9,18 21,30 12,12 14,10 28,19l49 -1c-15,-4 -36,-2 -50,-9 -50,-27 -42,-82 -48,-118 -1,19 -5,62 0,79z"/>
   <path class="fil79" d="M6950 5132c10,11 12,12 30,10 12,-10 13,-14 14,-33 -4,-10 5,-6 -10,-9 -9,10 -3,3 -5,10 -6,21 3,12 -9,21 -13,-11 2,-17 -6,-33l-11 -1 -3 35z"/>
   <path class="fil79" d="M6910 5114l18 11c-19,-3 -16,-11 -23,6 15,7 25,10 40,0 1,-20 -4,-18 -20,-24 4,-3 -1,-1 6,-2 12,-1 10,3 15,-5 -12,-11 -21,-10 -35,-4l-1 18z"/>
   <path class="fil79" d="M6724 5109c7,0 9,1 16,2 2,0 8,1 10,1 12,-2 3,3 10,-5 -6,-13 -5,-2 -19,-10l16 -5c1,0 2,-1 2,-1 -4,-9 -9,-6 -16,-12l20 -2c-3,-13 -20,-11 -34,-11l-5 43z"/>
   <path class="fil62" d="M4129 4746c-11,-2 -13,-3 -15,-13 14,-2 14,0 15,13zm-29 -8c9,8 38,33 47,35 5,-17 -11,-7 -12,-21 5,-3 0,-5 12,1 9,4 6,5 13,3l0 -3c-6,-11 -14,-7 -25,-20 -5,-7 -5,-11 -23,-11l-12 16z"/>
   <path class="fil74" d="M5556 4380c2,-12 4,-40 1,-52 -2,-6 -2,-6 -4,-9 -9,1 -17,-1 -16,28 0,38 7,31 19,33z"/>
   <path class="fil27" d="M5939 4277c9,-7 8,-10 14,-22 -2,-6 -2,-6 -6,-13l-7 -12 0 20c-11,-19 -32,-13 -32,5 1,18 26,20 31,4l0 18z"/>
   <path class="fil74" d="M5727 4380c7,-3 11,7 10,-29 -1,-22 5,-27 -11,-31l1 47c0,-20 3,-36 -6,-49 -8,12 -8,55 6,62z"/>
   <path class="fil83" d="M5616 4378c6,-9 -3,-1 7,-17l8 -20 4 39c5,-8 4,-18 4,-29 0,-6 0,-12 0,-17l-4 -17c-6,4 -1,-2 -6,7 -1,1 -4,11 -4,13 -8,-11 -2,-14 -13,-19 -2,13 -3,53 4,60z"/>
   <path class="fil62" d="M4240 4564c0,11 27,18 36,35 -9,7 -12,0 -22,-8 -20,-16 -15,-16 -24,-15 -1,3 -2,1 0,6 3,8 49,48 54,19 2,-11 -21,-26 -30,-34 -17,-14 -12,-4 -14,-3z"/>
   <path class="fil84" d="M4702 4791l2 -11c1,-6 1,-78 -3,-85 -4,-9 2,-1 -6,-5 -2,6 -9,95 7,101z"/>
   <path class="fil62" d="M4092 4757c38,6 48,54 7,12 -11,-10 -1,0 -7,-12zm39 36c10,-16 4,-20 -8,-28 -11,-8 -15,-18 -33,-16 -12,17 -8,19 6,29 11,10 18,21 35,15z"/>
   <path class="fil69" d="M4721 4684l2 38c6,-7 6,-9 9,-20l4 16 4 -3 -4 -17c-1,-8 -2,-15 -2,-23l9 0 7 -21 0 -3 -29 8 0 25z"/>
   <path class="fil80" d="M5710 4979l22 3 1 -17c0,0 -3,2 -1,7 2,11 0,5 6,11l2 -18c-3,12 -2,6 5,16 12,0 28,4 24,-12 -2,-5 10,-13 -14,-7 -13,4 -9,6 -9,14l-1 -14 -31 1c3,8 5,-1 3,6 -3,13 2,-9 -7,10z"/>
   <path class="fil76" d="M6283 4052l61 5 5 -19 -60 -1c-1,18 0,9 -6,15z"/>
   <path class="fil85" d="M5794 4969l-11 13 62 -3 0 -17 -29 0c-12,0 -18,0 -29,0 2,8 -1,2 2,5l5 2z"/>
   <path class="fil74" d="M5681 4379c7,-3 10,-10 14,-25 4,-13 6,-34 -8,-36 -22,-3 -6,61 -6,61z"/>
   <path class="fil16" d="M5269 4595c16,23 -8,79 14,101l-3 -128 -9 6 -2 21z"/>
   <path class="fil62" d="M4218 4638c-6,-2 -9,-2 -13,-5 -8,-8 -1,2 -5,-11 15,3 15,3 18,16zm0 -21l-16 -4 -14 16c9,9 37,32 45,36 6,-11 5,-4 0,-10 -2,-2 -9,-8 -11,-9 7,-15 3,-19 -4,-29z"/>
   <path class="fil62" d="M4218 4617l36 2c-5,16 -6,4 -15,11 23,24 43,-24 -1,-22 -12,1 -13,2 -19,-7 14,-9 5,9 15,-7 -10,-8 -7,-6 -19,-2 -6,11 -3,17 3,25z"/>
   <path class="fil86" d="M5613 4229c6,12 4,40 3,56l17 -5c3,-17 -1,-15 -1,-24 0,-15 10,-33 -19,-27z"/>
   <path class="fil79" d="M6591 5069l-2 21 34 4 1 -11 -17 -3c1,-17 8,-32 -5,-33 -12,0 -5,14 -11,22z"/>
   <path class="fil40" d="M6229 4051l54 1c6,-6 5,3 6,-15l-27 -1 -28 -1 -5 16z"/>
   <path class="fil86" d="M5652 4253c4,-17 5,-25 -13,-24 -7,12 -2,39 -1,54 1,0 2,-1 2,-1 1,-1 2,-2 3,-2l14 6c-3,-19 -8,-17 -5,-33z"/>
   <polygon class="fil87" points="5534,4539 5535,4495 5514,4495 5514,4538 "/>
   <path class="fil86" d="M5697 4260c2,-17 7,-12 0,-31l-12 0c-6,11 -3,35 -2,49 1,1 2,1 2,1l18 7c-3,-11 -8,-18 -6,-26z"/>
   <path class="fil62" d="M4123 4712l42 36c7,-6 15,-12 15,-21 -14,0 -4,3 -17,7 -11,-8 -7,-8 -4,-21 -20,1 0,1 -12,4 -7,1 -4,0 -13,-4 5,-18 11,-8 5,-20 -8,4 -3,0 -9,7l-7 12z"/>
   <path class="fil58" d="M5621 4689c4,3 -5,5 24,5l53 0c23,0 18,-2 20,-8 -12,-4 -84,-1 -97,3z"/>
   <path class="fil80" d="M5724 5135l-3 -16c-3,9 -8,13 6,18 4,-3 7,2 6,-18l1 20c7,-5 13,10 8,-19 1,0 2,0 2,1l7 -2c-3,10 -6,6 -8,17l28 1 -1 -17 -42 -3 -4 18z"/>
   <path class="fil88" d="M6822 5398l8 -4 0 -51c11,1 14,-1 17,8 3,11 -3,18 -6,23 13,-4 22,-12 14,-26 -5,-8 -23,-7 -34,-8l1 58z"/>
   <path class="fil80" d="M5844 5241c10,-7 2,2 6,-9 1,0 2,-11 2,-11 -1,0 -5,2 -6,2 -26,5 -33,-16 -39,17 4,-18 -3,-17 -6,-19l0 20c1,-10 3,-7 -1,-15 -3,-7 2,-1 -7,-3l-1 17 22 0 0 -14 13 15c8,-7 7,-9 15,-9 4,3 5,-6 2,9z"/>
   <path class="fil89" d="M5427 4876c0,1 1,1 1,2 1,6 8,2 6,23 15,-5 10,-5 25,-1 -1,-16 1,-14 8,-23 -16,-3 -13,-1 -18,-14l-4 4c0,1 -5,5 -5,5 -6,5 -6,3 -13,4z"/>
   <path class="fil89" d="M5479 4878c10,9 9,7 8,23 16,-5 8,-5 25,-1 -1,-16 1,-14 8,-23 -16,-3 -14,-1 -19,-14 -11,11 -5,9 -22,15z"/>
   <path class="fil89" d="M5374 4881c11,7 9,3 7,20 17,-5 9,-6 26,-1 -2,-17 0,-13 8,-23 -17,-3 -11,0 -20,-13 0,0 -1,1 -1,2l-20 15z"/>
   <path class="fil89" d="M5532 4876c9,13 9,5 7,25 16,-5 9,-6 25,-1 -1,-19 0,-11 8,-23 -17,-4 -11,-2 -20,-15 -7,14 -4,12 -20,14z"/>
   <path class="fil90" d="M5659 4283c7,-6 6,-1 9,-11l4 6c5,5 -1,1 6,5 0,-14 -1,-19 -2,-32 -3,-23 0,-17 -8,-24 -11,14 1,27 -14,41l4 6c2,4 1,2 1,9z"/>
   <path class="fil91" d="M4099 5455c11,-3 7,8 8,-12l9 9 11 -8c1,14 -4,9 8,11l0 -30c-12,2 -9,4 -17,16 -6,-8 -6,-13 -19,-17l0 31z"/>
   <path class="fil92" d="M6555 5407l21 -2c8,-5 5,4 6,-9 3,-22 -2,-8 -5,-10l-23 -1c-6,1 -3,-2 -8,2l0 19c5,4 2,1 9,1z"/>
   <path class="fil93" d="M5600 4897c-3,-8 -3,-12 -6,-18 11,-2 5,-1 10,-9 5,14 -4,8 12,8 -2,5 -2,9 -6,13 -5,4 1,-1 -6,3 -1,0 -2,2 -2,1 -1,0 -2,1 -2,2zm0 0l17 1 8 -19c0,0 1,-1 1,-2 -23,-10 -8,-5 -27,-17 -2,16 -1,10 -16,17 6,14 8,2 6,26 27,-3 3,1 11,-6z"/>
   <path class="fil91" d="M4266 5455c14,-4 3,2 11,-13l6 10 8 -10c-1,8 5,12 11,13l0 -31c-17,5 -6,4 -18,16l-14 -16c-7,11 -4,17 -4,31z"/>
   <path class="fil80" d="M5502 4981c25,2 1,-11 21,-6 2,9 0,-3 -2,6 12,-1 15,1 25,-2l0 -18c-8,6 -5,0 -11,17l0 -15 -34 0 1 18z"/>
   <path class="fil94" d="M5632 5067c3,12 8,8 2,13 -4,-1 2,8 -7,-10 0,0 -1,-2 -1,-2 -1,0 -2,-1 -2,0 -3,11 -3,-9 -7,7 5,-18 -3,-7 -6,-11l-2 23c13,-4 21,0 34,-5l7 -5 -1 10 19 -8c-1,-1 -4,-2 -5,-2l-4 -1c-1,-1 -1,-1 -1,-1l-26 -8z"/>
   <path class="fil79" d="M6841 5105l1 20c13,1 7,1 13,-1 4,-17 14,-38 -6,-42 -6,9 -1,1 -4,12 0,1 0,2 0,3l-2 5c-1,0 -1,2 -2,3z"/>
   <path class="fil91" d="M4045 5436c1,-1 -4,-12 10,0 -14,14 -9,1 -10,0zm-8 19c17,-4 -1,1 13,-7 7,8 3,6 14,7 -10,-19 4,-4 -1,-22 -2,-11 -14,-9 -27,-9l1 31z"/>
   <path class="fil80" d="M5711 5015c1,18 -5,16 10,18 7,1 1,-5 17,2l-1 -18c0,32 -2,8 10,18l0 -17c-5,-2 -5,-4 -17,-4 -3,0 -14,1 -19,1z"/>
   <path class="fil91" d="M4008 5433c23,-3 17,17 2,14 -3,-4 -2,0 -3,-8 -1,-4 0,-2 1,-6zm-10 13c11,13 18,13 32,3l1 -18c-19,-12 -34,-10 -33,15z"/>
   <path class="fil62" d="M4106 4821l9 -7c3,-5 4,-7 6,-14l-13 7c0,1 -1,2 -2,2 -13,-8 -30,-26 -42,-27 0,14 -9,-1 17,21 6,4 18,15 25,18z"/>
   <path class="fil88" d="M6867 5398l8 0 1 -30 11 4 -1 -13c0,10 0,7 -10,9l2 -25c12,1 19,3 18,15l0 -17 -28 0 -1 57z"/>
   <path class="fil95" d="M6597 5383c1,2 7,6 12,5 1,0 2,0 3,-1 9,-3 -3,-2 12,-10l-8 12c14,-1 7,4 12,-11 -10,-20 2,-14 -31,-18l1 19c11,-10 -1,-9 17,-10 -17,13 2,6 -18,14z"/>
   <path class="fil85" d="M5424 5241c-2,-33 -15,-9 -12,-22 -12,9 -10,-15 -10,18 -3,-18 5,-12 -10,-16 -4,8 -2,11 -2,20l34 0z"/>
   <path class="fil59" d="M4704 4780l-2 11 -8 20 10 -1c17,-17 12,-27 14,-56 -2,3 -3,2 -5,6 -2,3 -2,4 -3,7 -3,9 0,6 -6,13z"/>
   <path class="fil91" d="M4178 5436c16,-11 9,-1 10,0 -5,4 1,2 -6,3 -16,1 5,4 -4,-3zm-9 19c19,-2 0,1 14,-7 12,-7 8,2 15,-12 -7,-13 -12,-12 -29,-11l0 30z"/>
   <path class="fil79" d="M5660 5324c-9,-6 -8,16 -8,16 10,-6 8,3 11,-5 6,-1 1,6 4,15 2,9 1,5 4,10l7 -2c1,-4 5,-2 -4,-8 1,-11 -4,-2 5,-10l-7 -9 9 -9c-11,-3 -13,-1 -21,2z"/>
   <path class="fil80" d="M5621 5018c0,19 13,19 31,14l-1 -19 -20 2c-1,1 -2,0 -3,1 -6,1 -7,2 -7,2z"/>
   <path class="fil80" d="M5833 5137c11,0 4,0 14,-1 1,0 9,0 9,-1l9 -2c-1,-19 3,-16 -14,-15 -3,0 -5,1 -8,3 -8,7 -2,-2 -7,10 0,0 9,-2 -4,-14 -3,15 -2,12 1,20z"/>
   <path class="fil62" d="M4317 4508l13 13 20 -22 -14 -13c-7,7 -14,14 -19,22z"/>
   <path class="fil91" d="M4201 5436c7,9 4,6 17,9l-16 4c5,11 13,7 23,4 1,-21 -1,-10 -16,-20l15 -3c0,0 0,-7 -12,-6 -9,1 -9,4 -11,12z"/>
   <path class="fil62" d="M4226 4674c0,-10 -38,-36 -46,-36 0,12 -9,-2 19,21 5,5 7,6 12,11 6,4 -1,1 6,4 16,7 4,2 9,0z"/>
   <path class="fil91" d="M4249 5449c-10,-3 -10,5 -10,-25l-9 0c0,23 -3,34 23,30 3,-4 14,-24 1,-30l-5 25z"/>
   <path class="fil96" d="M7155 5166c-6,-8 7,-1 -3,-6 8,-5 5,-5 11,-8 6,-10 7,-12 7,-22l-5 8 -25 -5c6,8 0,10 20,9 -1,1 -2,2 -2,2 -19,15 -14,6 -20,26 12,-7 8,2 17,-4z"/>
   <path class="fil74" d="M5671 4379c5,-11 3,-19 3,-31 0,-15 2,-18 -6,-30 -9,12 -5,-18 -3,33 1,35 -2,22 6,28z"/>
   <path class="fil90" d="M5710 4230c-4,-5 1,0 -6,-3l10 54c4,-5 3,4 4,-12 1,-7 0,-7 1,-16 1,-9 5,-18 6,-27 -12,6 -8,12 -10,9 0,-1 0,2 -1,2l-4 -7z"/>
   <path class="fil97" d="M5622 5327c-1,-1 -3,-3 -3,-4 -7,-1 2,-2 -6,1l1 34c7,-8 3,-8 7,-14 1,-2 1,12 6,-9 2,22 -4,11 5,23l0 -41c-12,6 -1,0 -10,10z"/>
   <path class="fil88" d="M6722 5397c11,-4 17,-2 30,-2l1 -18c-7,16 -1,17 -24,18l1 -37 -3 -19c-5,6 -4,-4 -6,14l1 44z"/>
   <path class="fil98" d="M5623 5223l5 2c0,1 -3,5 -4,6l-3 9c1,1 3,2 10,1 10,-1 -4,-1 7,-1 5,0 18,1 19,1l-6 0 1 -16 -16 -4c-1,0 -11,1 -13,2z"/>
   <path class="fil83" d="M5516 4378c0,0 11,0 11,0 11,-3 4,0 10,-4 -1,-1 -2,-2 -3,-1 0,0 -2,-2 -4,-3 -1,0 -2,0 -2,-1l-5 -2c0,-8 0,-15 0,-23 0,-12 1,-15 -3,-23 -3,4 -2,-3 -4,10l0 47z"/>
   <path class="fil5" d="M6594 5407c12,0 19,3 30,-1 -3,-8 1,0 -3,-5 -1,0 -2,-1 -2,-1l-3 -4c-9,-10 9,-9 -20,-9l-2 20z"/>
   <path class="fil88" d="M7185 5363l1 36 10 -1 -3 -22c-1,-8 0,-10 0,-17 0,-28 3,-8 -9,-16l1 20z"/>
   <path class="fil96" d="M6563 5331c4,-4 6,-1 16,-10l-5 -2c-11,-1 -18,5 -21,13l28 0 -3 10c0,0 2,4 2,6 -18,0 0,-5 -25,1 0,-1 1,-3 1,-3 0,-1 1,-3 1,-3l-4 -6 0 17 29 1 -1 -23 -18 -1z"/>
   <path class="fil85" d="M5704 5075c-1,-1 -6,-4 -7,-4 -8,5 -3,-3 -6,13 17,1 11,-2 30,3l-1 -22c-25,3 -14,-4 -16,10z"/>
   <path class="fil99" d="M4685 4976c8,-3 11,8 11,-24 -1,-18 2,-18 -12,-20l1 44z"/>
   <path class="fil80" d="M5889 4965l-27 -3 2 20c5,-5 3,2 5,-7 1,-3 0,-8 0,-11l1 19 19 -3 0 -15z"/>
   <path class="fil80" d="M5793 5079l6 0c1,0 6,-2 7,-3 13,10 -4,6 19,9l1 -20c-27,3 -32,0 -33,14z"/>
   <path class="fil96" d="M7118 5133c11,3 4,3 8,-3l-1 -31 -10 1 9 17c-12,-2 -10,-4 -12,-5 -8,-3 -1,1 -10,3 -4,-7 -2,2 -1,-6 1,-14 4,4 1,-5 -10,3 -5,-5 -6,17l27 3c-10,10 -2,3 -5,9z"/>
   <path class="fil80" d="M5494 5128c0,0 -3,-4 -5,-6 -10,-13 -2,5 -3,-3 -7,7 -6,-9 -5,8 0,1 -4,7 9,6l10 -4c10,8 -11,6 11,8l4 -5c2,-3 3,-6 3,-9 -6,-4 4,-1 -7,-4 -6,-2 -10,0 -14,4l-3 5z"/>
   <path class="fil83" d="M5701 4376c4,3 -7,8 6,0 14,-8 3,-27 1,-33 -4,-22 5,-6 4,-23 -12,3 -14,13 -9,29 8,23 -2,19 -2,27z"/>
   <path class="fil85" d="M5652 5028c1,0 2,0 2,1 0,1 2,1 2,1l4 2c22,9 20,-11 21,-17l-24 3c-4,3 -3,-1 -5,10z"/>
   <path class="fil80" d="M5438 5120c-1,1 -2,1 -2,2l-2 12c-3,-13 -2,-10 -12,-17l0 16c5,3 -4,2 12,3 5,1 12,0 17,0 1,-10 0,-9 0,-11 0,0 -2,-5 -3,-7l-10 2z"/>
   <path class="fil90" d="M5583 4228c-8,13 -4,39 -3,54l19 -4c-1,0 -2,-1 -2,-1l-7 -4c-10,-7 1,-30 -7,-45z"/>
   <path class="fil22" d="M6127 4059c3,-3 3,-2 6,-6 2,-3 3,-6 5,-8l-57 -1 46 15z"/>
   <path class="fil100" d="M5819 4584c17,-8 7,-4 8,-28 0,-12 -1,-6 -10,-10 -5,15 -4,4 -1,18 3,15 -7,5 3,20z"/>
   <path class="fil96" d="M7095 5160c3,-11 6,-7 20,-4 -4,-10 8,-6 -5,-10l13 2c0,-13 4,-3 -8,-10 20,0 0,2 3,-5 -12,1 -10,14 -21,-2 -1,0 -1,-2 -2,-2 0,20 -6,12 15,18 -12,2 -10,1 -17,6l2 7z"/>
   <path class="fil19" d="M4092 4757c6,12 -4,2 7,12 41,42 31,-6 -7,-12z"/>
   <path class="fil80" d="M5691 5137c3,-15 6,-5 0,-20l15 13c-3,-18 -9,-8 -23,-12 -3,9 -1,4 -5,10 -8,-22 -7,-1 -8,8l21 1z"/>
   <path class="fil80" d="M5615 5237l-3 -15c-15,2 -3,-4 -19,3 0,0 0,0 0,0 0,1 0,0 0,0 -1,0 -4,-2 -5,-3l1 17c13,-7 15,9 26,-2z"/>
   <path class="fil10" d="M4740 4715c4,-4 2,6 6,-7 1,-4 1,-8 1,-12 0,-9 0,-13 -4,-21l-9 0c0,8 1,15 2,23l4 17z"/>
   <path class="fil101" d="M7154 5100l5 7 -14 4 -2 18 13 -3c-1,0 -2,-1 -3,0l-10 -8c18,3 14,2 30,8 -8,-9 -3,-5 -16,-9 17,-5 10,-1 15,-11l-18 -6z"/>
   <path class="fil91" d="M4069 5442l0 13 10 -12c12,-1 6,1 13,-4l-14 -5c7,-5 6,2 15,-10l-24 0 0 18z"/>
   <path class="fil88" d="M6998 5368l0 27 7 1c0,-10 0,-19 0,-29 0,-4 0,-14 1,-17 2,-9 0,-4 5,-8l-12 2 -1 24z"/>
   <path class="fil94" d="M5670 4964c2,11 -1,7 4,12 3,4 5,4 11,5l2 -14c0,1 0,1 0,3 1,1 2,4 3,5 5,8 -1,1 6,7l1 -21 -27 3z"/>
   <path class="fil102" d="M5500 5225c1,1 2,6 2,7 3,8 2,4 6,8l0 -17 -33 -3 1 22 8 -16c5,5 2,1 5,9 0,0 1,3 2,5 9,-12 -5,-7 9,-15z"/>
   <path class="fil85" d="M5360 5173c0,1 0,1 0,3l2 13c2,0 4,-3 5,-2 0,1 2,-1 3,-2 20,-10 14,-3 19,-16 -10,0 -23,0 -29,4z"/>
   <path class="fil103" d="M6917 5363l16 32 5 -7 -23 -46c-6,7 -4,7 2,21z"/>
   <path class="fil103" d="M7058 5363c13,11 29,12 20,33l8 -2c1,-12 1,-18 -9,-26 -25,-20 -10,-16 -19,-21l0 16z"/>
   <path class="fil103" d="M7027 5390l1 -10 -1 -37c-8,4 -4,-7 -6,10l-1 43c13,2 3,2 7,-6z"/>
   <path class="fil104" d="M5639 5337c1,-15 0,-5 3,-9 11,19 -1,23 -1,23 -1,-5 -2,-8 -2,-14zm8 21c2,-14 3,-27 -2,-40 -17,5 -10,31 -10,32 6,13 1,4 12,8z"/>
   <path class="fil105" d="M5774 5032c9,5 -10,3 13,3 3,0 10,-1 11,-2 -2,-3 -2,-1 -4,-8 0,0 -1,-9 -1,-10 -4,-1 -3,-1 -7,-1 -7,2 -6,2 -9,3l4 8c-10,3 -2,1 -7,7z"/>
   <path class="fil105" d="M5598 4980c0,0 2,2 7,3 1,0 10,-1 11,-1l0 -20 -20 3 2 15z"/>
   <path class="fil91" d="M3972 5454c33,5 21,0 24,-5l-15 0c-1,-21 5,-21 -6,-24l-3 29z"/>
   <path class="fil102" d="M5413 5066l0 18c8,-6 3,3 7,-7 1,-3 1,-8 1,-11 4,11 2,7 1,21l11 -17c0,24 -2,9 8,15l-4 -18 -24 -1z"/>
   <path class="fil103" d="M6957 5372c0,3 0,9 0,11 1,22 -2,6 4,14 3,-5 4,2 3,-20 -1,-9 -1,-17 -2,-25l-1 -10c-8,8 -4,17 -4,30z"/>
   <path class="fil98" d="M5424 4980c2,1 -3,3 17,2l0 -20 -18 2 1 16z"/>
   <path class="fil103" d="M7144 5360c5,6 6,10 9,18 2,4 3,8 5,12 4,6 3,5 8,6l-17 -43c-7,-13 1,-4 -10,-9l5 16z"/>
   <path class="fil80" d="M5880 5132l-4 -9c-1,-1 -2,-2 -3,-3 -1,-1 -2,-2 -3,-3 0,12 0,12 -3,20 11,1 4,1 10,0l14 -4c0,-2 0,-7 -1,-9 -1,-1 -1,-2 -2,-3l-4 -3c0,0 -1,0 -2,-1 0,1 -1,1 -1,2l-1 13z"/>
   <path class="fil82" d="M5412 4262c-10,0 -20,0 -30,0 -23,0 -17,1 -19,7l42 0c9,-3 4,0 7,-7z"/>
   <path class="fil98" d="M5627 4979c5,2 -5,4 12,3 4,-5 6,1 5,-10 0,-8 -2,-6 -4,-10 -1,0 -2,-1 -2,0l-11 3 0 14z"/>
   <path class="fil94" d="M5598 4980l-2 -15 -2 5c-5,-6 3,-5 -16,-8l0 20c17,-2 14,-4 16,-8 0,1 2,2 2,4 0,1 1,1 2,2z"/>
   <path class="fil80" d="M5382 5136c2,-5 0,-1 -2,-13 10,17 5,12 15,13 -3,-12 -6,-11 -1,-18l-23 0c7,4 1,1 3,9 4,11 -3,6 8,9z"/>
   <path class="fil98" d="M5917 5138l21 -2c-2,-20 4,-15 -13,-18l-8 20z"/>
   <path class="fil106" d="M5774 5032c5,-6 -3,-4 7,-7l-4 -8c-5,3 -3,2 -7,8l-12 -7c-2,-1 -9,-3 -12,-4l0 20c2,-3 3,-3 5,-9 0,-1 2,-7 3,-8l7 15c8,-6 11,-1 13,0z"/>
   <path class="fil105" d="M5432 5030c0,1 2,0 2,2 1,1 2,1 3,1l17 2 -1 -17c-2,-1 -2,-8 -17,-2 11,23 2,12 -4,14z"/>
   <path class="fil103" d="M7096 5389l-1 5c9,-6 4,10 7,-14l0 -27c0,-9 0,-4 -3,-9 -5,7 -3,1 -3,23 0,7 0,14 0,22z"/>
   <path class="fil80" d="M5607 5033l-18 -2c4,8 3,9 13,8 14,-2 -5,-7 19,-5 -4,-22 2,-16 -9,-19l-5 18z"/>
   <path class="fil106" d="M5725 5085l24 -1 -1 -18c-1,1 -2,1 -2,2l-10 1c7,13 -1,12 -2,13l-7 -17 -2 20z"/>
   <path class="fil91" d="M4159 5455c4,-5 3,8 4,-12 1,-5 0,-14 0,-19 -1,1 -17,-5 -8,25 2,8 -1,1 4,6z"/>
   <path class="fil71" d="M5702 5340c-6,-4 -10,15 -11,17 9,-5 14,-9 19,-16 -5,-10 -10,-12 -18,-19 0,12 2,11 10,18z"/>
   <path class="fil107" d="M5600 4897c0,-1 1,-2 2,-2 0,1 1,-1 2,-1 7,-4 1,1 6,-3 4,-4 4,-8 6,-13 -16,0 -7,6 -12,-8 -5,8 1,7 -10,9 3,6 3,10 6,18z"/>
   <path class="fil5" d="M6618 5331l-2 -5c29,-12 -8,7 10,-5 -7,-5 3,-2 -8,-4 -23,-5 -23,5 -23,5 7,7 8,4 23,9z"/>
   <path class="fil52" d="M6648 5085c15,4 15,-6 11,-18l-13 1c-2,8 -5,8 2,17z"/>
   <path class="fil108" d="M5663 5335c-3,8 -1,-1 -11,5 0,0 -1,-22 8,-16 -3,-4 11,-4 -9,-4l1 38c9,-1 7,-1 14,2 -2,-10 -6,-13 -3,-25z"/>
   <path class="fil105" d="M5772 5134l11 2c7,-1 3,0 6,-4l0 -13c1,0 2,1 2,2l9 -1c-4,-4 -2,-4 -10,-4 -1,0 -6,0 -7,0 -8,2 -6,2 -9,4 3,3 7,-8 4,9 -2,9 1,2 -6,5z"/>
   <path class="fil102" d="M5554 5138l17 -4 2 -14c-18,6 -6,10 -18,-3l-1 21z"/>
   <path class="fil25" d="M7095 5160c5,12 12,8 20,7l0 -11c-14,-3 -17,-7 -20,4z"/>
   <path class="fil103" d="M6806 5389l0 1c7,-17 11,-42 -9,-44 6,4 9,10 9,21 0,8 -2,9 -3,14 -1,10 -6,5 3,8z"/>
   <path class="fil80" d="M5622 5133c-15,3 -3,1 -8,-3 1,-14 -1,-6 4,-12 -9,1 -12,1 -15,2l-3 17c19,-2 11,3 22,-4z"/>
   <path class="fil106" d="M5651 5241l6 0 0 -17c5,10 1,10 6,16l4 -16c1,7 0,5 2,12l5 -15 -24 4 1 16z"/>
   <path class="fil94" d="M5765 5067l-1 20c9,-9 7,-2 9,-17 -1,27 -2,7 4,15l5 -19 -17 1z"/>
   <path class="fil102" d="M5754 5084c13,-2 7,10 9,-6 3,-24 -2,-8 -6,-12 -9,5 -5,-7 -7,8 -3,21 -2,3 4,10z"/>
   <path class="fil106" d="M5474 4981l2 -16c1,11 0,11 5,17l1 -18c2,9 -1,10 5,18l0 -19 -19 0c5,14 -3,9 6,18z"/>
   <path class="fil94" d="M5402 5130c5,3 8,4 13,7 7,-12 4,-11 4,-17 -14,-3 -13,-3 -17,10z"/>
   <path class="fil80" d="M5389 5074c5,1 6,2 11,-3 0,1 -1,6 0,6 2,12 -1,2 2,8 0,-1 1,-3 1,-2l8 -14c0,-1 1,-2 1,-2 -28,-5 -22,0 -23,7z"/>
   <path class="fil103" d="M6757 5358c-2,21 5,20 6,32 11,-5 5,2 4,-7 0,0 -3,-6 -3,-10 -1,-7 -1,-15 3,-19 -5,-9 2,-7 -5,-2 -1,0 -4,5 -5,6z"/>
   <path class="fil85" d="M6555 5407c17,8 14,-3 19,15l-29 -1c8,7 7,8 28,5 4,-15 -3,-13 3,-21l-21 2z"/>
   <path class="fil96" d="M7115 5100l-4 -2c17,-9 6,0 14,-13 -12,1 -22,3 -29,12l19 3z"/>
   <path class="fil17" d="M5844 5241c0,0 2,1 2,1l10 1c4,0 10,-1 11,-1 -4,-8 -5,-8 -5,-19 0,1 -1,1 -2,3l-4 13 -3 -17 -1 -1c0,0 -1,11 -2,11 -4,11 4,2 -6,9z"/>
   <path class="fil105" d="M5642 5120c-2,-2 1,-3 -7,-3 -10,0 -7,0 -11,3l6 15c3,-2 3,-5 9,2 -1,-14 -4,-6 3,-17z"/>
   <path class="fil102" d="M5789 5132c3,7 -2,3 8,4 6,-4 3,9 6,-7 2,-16 -1,-6 -3,-9l-9 1c0,-1 -1,-2 -2,-2l0 13z"/>
   <path class="fil102" d="M5644 4979c0,0 1,-1 1,0 4,12 -3,-5 12,3 -2,-17 3,-14 -9,-19 -5,5 -2,-4 -4,6 -1,5 -1,5 0,10z"/>
   <path class="fil94" d="M5589 5031c-5,-17 -1,-11 4,-15l5 9c5,7 -4,9 9,8l0 -15 -8 -2c-1,0 -2,0 -2,0 -1,0 -2,0 -2,0 -10,1 -6,0 -13,5 3,9 0,5 7,10z"/>
   <path class="fil17" d="M5691 5137c1,0 13,2 20,3l-5 -10 -15 -13c6,15 3,5 0,20z"/>
   <path class="fil24" d="M4010 5447c15,3 21,-17 -2,-14 -1,4 -2,2 -1,6 1,8 0,4 3,8z"/>
   <path class="fil2" d="M5796 4571c-4,12 -3,1 -4,5 -2,11 -2,4 5,8 5,-14 3,-8 -1,-20 -6,-19 3,-2 0,-13 -5,2 -8,-9 -7,10 1,8 -1,0 2,5 0,1 4,4 5,5z"/>
   <path class="fil106" d="M5385 5086l-2 -21c-3,4 -2,3 -5,9 -1,2 -2,7 -3,9l0 -15c-2,1 -7,-2 -6,9 2,11 2,5 16,9z"/>
   <path class="fil89" d="M7154 5100l16 -1c-3,-11 11,-1 -29,-10 5,12 -4,5 13,11z"/>
   <path class="fil96" d="M6549 5310c9,3 21,3 29,-2 -4,-4 6,-4 -15,-4 -23,0 -6,-3 -14,6z"/>
   <path class="fil109" d="M5492 5085l12 -3c0,0 1,0 2,0 0,-1 1,-1 1,-1 -1,-8 -1,-5 -2,-13 -6,5 -4,-2 -5,8 -6,-15 -1,-3 -8,-10l0 19z"/>
   <polygon class="fil102" points="5869,5033 5879,5015 5858,5015 "/>
   <path class="fil89" d="M7109 5189c-27,-4 -17,-5 -25,2l28 4c4,-10 1,-7 5,-15l-6 5c0,0 -1,2 -1,2 0,0 -1,1 -1,2z"/>
   <path class="fil103" d="M7043 5374c9,-4 9,-8 9,-20 -6,-7 -6,-7 -14,-10 9,11 7,15 5,30z"/>
   <path class="fil80" d="M5583 5235c-5,-15 1,-6 -10,-13 -5,5 -6,3 -3,18l13 -5z"/>
   <path class="fil80" d="M5899 5028l10 -1c9,-4 7,-4 10,-10 -9,-2 -20,-5 -20,11z"/>
   <path class="fil102" d="M5615 5237l6 3 3 -9c1,-1 4,-5 4,-6l-5 -2 -11 -1 3 15z"/>
   <path class="fil102" d="M5889 4965l18 16 -1 -19c-15,1 -15,2 -17,3z"/>
   <path class="fil80" d="M5542 5084l16 0 0 -18c-1,0 -2,0 -3,1 0,1 -2,1 -2,2l-11 15z"/>
   <path class="fil73" d="M4218 4638c-3,-13 -3,-13 -18,-16 4,13 -3,3 5,11 4,3 7,3 13,5z"/>
   <path class="fil80" d="M5857 5082c18,4 11,0 14,-1l1 -15c-9,6 -12,7 -15,16z"/>
   <path class="fil109" d="M5441 4981l10 -5c6,-3 4,1 7,-7l-9 -1c-4,1 4,8 -8,-5l0 18z"/>
   <path class="fil103" d="M6857 5397l-16 -23 -8 1c14,10 7,17 24,22z"/>
   <path class="fil19" d="M4129 4746c-1,-13 -1,-15 -15,-13 2,10 4,11 15,13z"/>
   <path class="fil110" d="M5589 5031l18 2c-13,1 -4,-1 -9,-8l-5 -9c-5,4 -9,-2 -4,15z"/>
   <path class="fil80" d="M5901 5085c1,-1 2,-2 3,-2l14 -6 -4 -13c0,1 -2,1 -3,3l-10 18z"/>
   <path class="fil80" d="M5682 5236c1,0 2,0 2,0l13 -7c0,0 1,-1 1,-2 0,0 1,-1 1,-2 -11,-3 -19,0 -17,11z"/>
   <path class="fil106" d="M5622 5133c9,4 9,5 20,0l0 -13c-7,11 -4,3 -3,17 -6,-7 -6,-4 -9,-2l-6 -15c-2,6 -2,3 -2,13z"/>
   <path class="fil106" d="M5509 5242c1,-1 2,-4 2,-3l13 -13 -14 -3 -1 19z"/>
   <path class="fil111" d="M4972 4388l2 0 -1 -29c-14,-4 -21,-2 -26,0l24 0 1 29z"/>
   <polygon class="fil94" points="5424,4980 5423,4964 5419,4980 5412,4963 5410,4981 "/>
   <path class="fil71" d="M5641 5351c0,0 12,-4 1,-23 -3,4 -2,-6 -3,9 0,6 1,9 2,14z"/>
   <path class="fil80" d="M5885 5084l0 -7c-1,-3 -2,-6 -3,-9 -1,1 -9,-9 -5,9 3,12 -3,5 8,7z"/>
   <path class="fil94" d="M5580 5121c-1,12 2,12 6,15 5,-7 1,-3 7,-9 -1,-1 -6,-4 -6,-5l-7 -1z"/>
   <path class="fil98" d="M6618 5331c-8,7 -7,2 -19,15 11,-3 18,-6 25,-13l-6 -2z"/>
   <path class="fil80" d="M5714 5242c7,-12 -3,-19 -3,-19 -7,18 2,18 3,19z"/>
   <path class="fil106" d="M5867 5242l-1 -13c-6,-8 2,-3 -13,-7l3 17 4 -13c1,-2 2,-2 2,-3 0,11 1,11 5,19z"/>
   <path class="fil85" d="M6565 5365c1,0 1,1 2,1l7 6c6,-11 6,-3 7,-15 -9,13 -10,3 -26,3 1,0 2,1 3,1l7 4z"/>
   <path class="fil109" d="M5550 5021l6 -5c-20,1 -9,-5 -13,5 0,24 0,6 3,12l4 -12z"/>
   <path class="fil109" d="M5798 5033c2,-5 6,0 4,-17l-4 10c1,-21 0,-5 -5,-11 0,1 1,10 1,10 2,7 2,5 4,8z"/>
   <path class="fil109" d="M5627 4979l0 -14 -4 15c0,0 -1,-3 -1,-2l-7 -16 0 19 12 -2z"/>
   <path class="fil106" d="M5830 5085c9,-7 7,8 7,-16l6 -3c-16,5 -10,-2 -13,19z"/>
   <path class="fil109" d="M5525 5137c9,-4 5,-2 8,-1 4,-5 3,2 4,-16l-5 5c0,0 -1,0 -1,0l-6 12z"/>
   <path class="fil80" d="M6554 5385l23 1c0,-1 -1,-3 -2,-2 0,1 -2,-4 -9,-4 -8,0 -11,5 -12,5z"/>
   <path class="fil24" d="M4045 5436c1,1 -4,14 10,0 -14,-12 -9,-1 -10,0z"/>
   <path class="fil112" d="M6706 5081c-2,-11 8,-4 -9,-9 2,10 -3,13 9,9z"/>
   <path class="fil113" d="M5772 5134c7,-3 4,4 6,-5 3,-17 -1,-6 -4,-9l-2 14z"/>
   <path class="fil52" d="M6891 5107c-3,-9 6,-4 -8,-9 -2,14 -7,9 8,9z"/>
   <path class="fil106" d="M5588 5082l3 -11c-5,-2 3,-2 -11,-3l8 14z"/>
   <path class="fil113" d="M5517 5081c4,-6 4,8 3,-7 -1,-12 2,1 -3,-5 -1,0 -10,-1 0,12z"/>
   <path class="fil24" d="M4178 5436c9,7 -12,4 4,3 7,-1 1,1 6,-3 -1,-1 6,-11 -10,0z"/>
   <path class="fil113" d="M5550 5021c2,6 -5,2 7,9 -5,-13 1,-4 -7,-9z"/>
   <path class="fil82" d="M5363 4238c6,6 -11,4 9,7l-9 -7z"/>
   <path class="fil114" d="M5779 5234c-1,-7 -1,-6 -5,-10l5 10z"/>
  </g>
 </g>
</svg>
